<?xml version="1.0" encoding="UTF-8" standalone="no"?>
<!-- Created with Inkscape (http://www.inkscape.org/) -->

<svg
   width="512"
   height="512"
   viewBox="0 0 512 512"
   version="1.1"
   id="svg1"
   sodipodi:docname="icon-bold.svg"
   inkscape:export-filename="icon.svg"
   inkscape:export-xdpi="96"
   inkscape:export-ydpi="96"
   inkscape:version="1.4 (e7c3feb100, 2024-10-09)"
   xmlns:inkscape="http://www.inkscape.org/namespaces/inkscape"
   xmlns:sodipodi="http://sodipodi.sourceforge.net/DTD/sodipodi-0.dtd"
   xmlns="http://www.w3.org/2000/svg"
   xmlns:svg="http://www.w3.org/2000/svg">
  <sodipodi:namedview
     id="namedview1"
     pagecolor="#505050"
     bordercolor="#eeeeee"
     borderopacity="1"
     inkscape:showpageshadow="0"
     inkscape:pageopacity="0"
     inkscape:pagecheckerboard="0"
     inkscape:deskcolor="#505050"
     inkscape:document-units="px"
     showgrid="true"
     inkscape:zoom="1.6006577"
     inkscape:cx="250.20964"
     inkscape:cy="298.31487"
     inkscape:window-width="3440"
     inkscape:window-height="1363"
     inkscape:window-x="0"
     inkscape:window-y="0"
     inkscape:window-maximized="1"
     inkscape:current-layer="layer1">
    <inkscape:page
       x="0"
       y="0"
       width="512"
       height="512"
       id="page2"
       margin="0"
       bleed="0" />
    <inkscape:grid
       id="grid1"
       units="px"
       originx="0"
       originy="0"
       spacingx="0.5"
       spacingy="0.5"
       empcolor="#0099e5"
       empopacity="0.30196078"
       color="#0099e5"
       opacity="0.14901961"
       empspacing="2"
       enabled="true"
       visible="true" />
  </sodipodi:namedview>
  <defs
     id="defs1" />
  <path
     style="fill:#363a4f;fill-opacity:1;stroke:none;stroke-width:0.0969529"
     d="m 51.247343,255.70411 -34.182579,-69.32354 -0.95839,-21.08458 124.910166,2.5557 -44.724863,-92.005449 133.855143,0.319463 44.40541,89.769206 88.49136,-0.63892 45.36378,91.36651 -131.29943,0.31946 46.64164,97.75578 22.04297,19.48728 6.70874,16.61209 v 28.43225 l -8.30606,7.34764 -11.18121,8.62552 -191.35855,2.5557 -45.044331,-90.72759 86.894031,-0.31946 -43.76647,-91.68599 z"
     id="path3" />
  <path
     style="fill:#363a4f;fill-opacity:1;stroke:none;stroke-width:0.0969529"
     d="m 407.12953,435.08279 89.13027,-0.4792 -43.12755,-88.01216 -86.41485,0.15974 z"
     id="path4" />
  <g
     inkscape:label="Layer 1"
     inkscape:groupmode="layer"
     id="layer1"
     style="display:inline">
    <path
       id="text2"
       style="font-size:74.6667px;font-family:'Fira Code';-inkscape-font-specification:'Fira Code';white-space:pre;display:inline;fill:#181926;fill-opacity:1;stroke:#ffffff;stroke-width:0.1"
       sodipodi:type="inkscape:offset"
       inkscape:radius="11.461794"
       inkscape:original="M 145.04492 66.519531 L 145.04492 72.148438 L 186.39844 72.148438 L 187.92969 72.148438 L 229.2832 72.148438 L 229.2832 66.519531 L 187.92969 66.519531 L 186.39844 66.519531 L 145.04492 66.519531 z M 104.41797 89.589844 L 99.287109 92.115234 L 131.98633 159.46875 L 137.19531 157.17188 L 104.41797 89.589844 z M 242.26367 89.589844 L 237.13281 92.115234 L 269.83398 159.46875 L 275.04102 157.17188 L 242.26367 89.589844 z M 7.1972656 159.85156 L 7.1972656 165.48047 L 48.550781 165.48047 L 50.083984 165.48047 L 91.4375 165.48047 L 91.4375 159.85156 L 50.083984 159.85156 L 48.550781 159.85156 L 7.1972656 159.85156 z M 282.89062 159.85156 L 282.89062 165.48047 L 324.24414 165.48047 L 325.77539 165.48047 L 367.12891 165.48047 L 367.12891 159.85156 L 325.77539 159.85156 L 324.24414 159.85156 L 282.89062 159.85156 z M 12.519531 182.92188 L 7.3886719 185.44922 L 40.089844 252.80273 L 45.296875 250.50586 L 12.519531 182.92188 z M 380.10938 182.92188 L 374.97852 185.44922 L 407.67969 252.80273 L 412.88672 250.50586 L 380.10938 182.92188 z M 53.146484 253.18555 L 53.146484 258.81445 L 94.5 258.81445 L 96.03125 258.81445 L 137.38672 258.81445 L 137.38672 253.18555 L 96.03125 253.18555 L 94.5 253.18555 L 53.146484 253.18555 z M 282.89062 253.18555 L 282.89062 258.81445 L 324.24414 258.81445 L 325.77539 258.81445 L 367.12891 258.81445 L 367.12891 253.18555 L 325.77539 253.18555 L 324.24414 253.18555 L 282.89062 253.18555 z M 150.36719 276.25586 L 145.23633 278.7832 L 177.93555 346.13672 L 183.14258 343.83789 L 150.36719 276.25586 z M 288.21289 276.25586 L 283.08203 278.7832 L 315.78125 346.13672 L 320.99023 343.83789 L 288.21289 276.25586 z M 99.095703 346.51953 L 99.095703 352.14844 L 137.38672 352.14844 L 137.38672 346.51953 L 99.095703 346.51953 z M 374.78711 346.51953 L 374.78711 352.14844 L 416.14258 352.14844 L 417.67383 352.14844 L 459.02734 352.14844 L 459.02734 346.51953 L 417.67383 346.51953 L 416.14258 346.51953 L 374.78711 346.51953 z M 451.56055 365.22461 L 435.32617 424.72852 L 424.71875 394.70703 L 419.12891 396.62305 L 431.87891 431.58203 L 439.1543 431.58203 L 456.07812 370.73828 L 469.67578 370.73828 L 466.87695 372.11719 L 499.57617 439.46875 L 504.78516 437.17188 L 472.00781 369.58984 L 470.09375 370.5332 L 470.09375 365.22461 L 451.56055 365.22461 z M 341.66602 367.25391 L 338.29688 370.77539 C 341.0538 373.22598 343.45393 375.63965 345.49609 378.01367 C 347.56379 380.36217 349.27401 382.83765 350.62695 385.44141 C 351.97989 388.04517 352.98864 390.91681 353.65234 394.05664 C 354.34158 397.19647 354.68555 400.7696 354.68555 404.77734 C 354.68555 410.1125 354.07296 414.72144 352.84766 418.60156 C 351.64788 422.45615 349.83523 425.97904 347.41016 429.16992 C 344.98508 432.3608 341.94724 435.56288 338.29688 438.7793 L 341.66602 442.30273 C 345.8014 438.93316 349.33782 435.47405 352.27344 431.92578 C 355.23458 428.37751 357.49363 424.42177 359.05078 420.05664 C 360.63346 415.69151 361.42383 410.59752 361.42383 404.77734 C 361.42383 398.95717 360.63346 393.86513 359.05078 389.5 C 357.49363 385.13487 355.23458 381.17912 352.27344 377.63086 C 349.33782 374.08259 345.8014 370.62348 341.66602 367.25391 z M 104.41797 369.58984 L 99.287109 372.11719 L 131.98633 439.46875 L 137.19531 437.17188 L 104.41797 369.58984 z M 380.10938 369.58984 L 374.97852 372.11719 L 407.67969 439.46875 L 412.88672 437.17188 L 380.10938 369.58984 z M 145.04492 439.85156 L 145.04492 445.48047 L 186.39844 445.48047 L 187.92969 445.48047 L 232.34766 445.48047 L 233.87891 445.48047 L 278.29492 445.48047 L 279.82617 445.48047 L 321.18164 445.48047 L 321.18164 439.85156 L 279.82617 439.85156 L 278.29492 439.85156 L 233.87891 439.85156 L 232.34766 439.85156 L 187.92969 439.85156 L 186.39844 439.85156 L 145.04492 439.85156 z "
       d="m 145.04492,55.058594 a 11.46294,11.46294 0 0 0 -11.46094,11.460937 v 5.628906 a 11.46294,11.46294 0 0 0 11.46094,11.460938 h 41.35352 1.53125 41.35351 a 11.46294,11.46294 0 0 0 1.92383,-0.796875 11.46294,11.46294 0 0 0 -4.38476,14.308594 l 32.70117,67.353516 a 11.46294,11.46294 0 0 0 13.77539,5.51758 11.46294,11.46294 0 0 0 9.59179,6.94922 h 41.35352 1.53125 41.35352 a 11.46294,11.46294 0 0 0 1.92578,-0.79883 11.46294,11.46294 0 0 0 -4.38672,14.3125 l 32.70117,67.35351 a 11.46294,11.46294 0 0 0 14.93555,5.48047 l 5.20703,-2.29687 a 11.46294,11.46294 0 0 0 5.6875,-15.48828 l -32.77735,-67.58399 a 11.46294,11.46294 0 0 0 -14.7832,-5.3164 11.46294,11.46294 0 0 0 2.95117,-7.12305 v -5.62891 a 11.46294,11.46294 0 0 0 -11.46093,-11.46094 h -41.35352 -1.53125 -40.72266 L 252.57617,84.587891 a 11.46294,11.46294 0 0 0 -14.7832,-5.31836 11.46294,11.46294 0 0 0 2.95117,-7.121094 V 66.519531 A 11.46294,11.46294 0 0 0 229.2832,55.058594 h -41.35351 -1.53125 z M 108.14258,78.75 a 11.46294,11.46294 0 0 0 -8.787111,0.556641 l -5.13086,2.52539 a 11.46294,11.46294 0 0 0 -5.248047,15.289063 l 32.699218,67.353516 a 11.46294,11.46294 0 0 0 14.93555,5.48242 l 5.20898,-2.29687 a 11.46294,11.46294 0 0 0 5.6875,-15.49024 L 114.73047,84.587891 A 11.46294,11.46294 0 0 0 108.14258,78.75 Z M 7.1972656,148.39062 a 11.46294,11.46294 0 0 0 -11.4609375,11.46094 v 5.62891 a 11.46294,11.46294 0 0 0 6.859375,9.55469 l -0.2714843,0.13281 a 11.46294,11.46294 0 0 0 -5.2460938,15.28711 l 32.701172,67.35351 a 11.46294,11.46294 0 0 0 13.77539,5.51758 11.46294,11.46294 0 0 0 9.591797,6.94922 H 94.5 h 1.53125 41.35547 a 11.46294,11.46294 0 0 0 1.92578,-0.79883 11.46294,11.46294 0 0 0 -4.38672,14.3125 l 32.69922,67.35352 a 11.46294,11.46294 0 0 0 14.93945,5.48047 l 5.20703,-2.29883 a 11.46294,11.46294 0 0 0 5.6836,-15.48828 l -32.77539,-67.58203 a 11.46294,11.46294 0 0 0 -14.78321,-5.31641 11.46294,11.46294 0 0 0 2.95118,-7.12305 v -5.6289 A 11.46294,11.46294 0 0 0 137.38672,241.72461 H 96.03125 94.5 53.777344 L 22.832031,177.91992 a 11.46294,11.46294 0 0 0 -1.105469,-0.97851 H 48.550781 50.083984 91.4375 a 11.46294,11.46294 0 0 0 11.46094,-11.46094 v -5.62891 A 11.46294,11.46294 0 0 0 91.4375,148.39062 H 50.083984 48.550781 Z M 282.89062,241.72461 a 11.46294,11.46294 0 0 0 -11.46093,11.46094 v 5.6289 a 11.46294,11.46294 0 0 0 6.85937,9.55469 l -0.27148,0.13281 a 11.46294,11.46294 0 0 0 -5.2461,15.28711 l 32.69922,67.35352 a 11.46294,11.46294 0 0 0 14.9375,5.48047 l 5.20899,-2.29883 a 11.46294,11.46294 0 0 0 5.68554,-15.48828 l -32.77734,-67.58203 a 11.46294,11.46294 0 0 0 -1.10547,-0.97852 h 26.82422 1.53125 41.35352 a 11.46294,11.46294 0 0 0 11.46093,-11.46094 v -5.6289 a 11.46294,11.46294 0 0 0 -11.46093,-11.46094 h -41.35352 -1.53125 z M 99.095703,335.05859 a 11.46294,11.46294 0 0 0 -11.460937,11.46094 v 5.62891 a 11.46294,11.46294 0 0 0 6.859375,9.55468 l -0.271485,0.13282 a 11.46294,11.46294 0 0 0 -5.246094,15.28711 l 32.699218,67.35156 a 11.46294,11.46294 0 0 0 13.77734,5.51953 11.46294,11.46294 0 0 0 9.5918,6.94727 h 41.35352 1.53125 44.41797 1.53125 44.41601 1.53125 41.35547 a 11.46294,11.46294 0 0 0 10.3125,-8.69141 l 1.88867,1.97461 a 11.46294,11.46294 0 0 0 15.52344,0.96289 c 4.6238,-3.76754 8.69675,-7.72785 12.17773,-11.93164 3.79702,-4.55298 6.75051,-9.73133 8.74805,-15.32031 2.13316,-5.89477 3.05274,-12.31043 3.05274,-19.15821 0,-5.19096 -0.74167,-10.03979 -1.92579,-14.69531 l 26.41016,54.39258 a 11.46294,11.46294 0 0 0 14.93555,5.48047 l 5.20703,-2.29688 a 11.46294,11.46294 0 0 0 6.53125,-8.33203 11.46294,11.46294 0 0 0 7.83594,3.7168 h 7.27539 a 11.46294,11.46294 0 0 0 11.04297,-8.38867 l 12.49414,-44.91797 26.57421,54.73828 a 11.46294,11.46294 0 0 0 14.93555,5.48242 l 5.20899,-2.29687 a 11.46294,11.46294 0 0 0 5.6875,-15.49024 l -32.77735,-67.58203 a 11.46294,11.46294 0 0 0 -1.62695,-1.43945 11.46294,11.46294 0 0 0 -10.59961,-9.38477 h -0.27539 a 11.46294,11.46294 0 0 0 0.66992,-1.61523 v -5.62891 a 11.46294,11.46294 0 0 0 -11.46094,-11.46094 h -41.35351 -1.53125 -41.35547 a 11.46294,11.46294 0 0 0 -11.46094,11.46094 v 5.62891 a 11.46294,11.46294 0 0 0 6.85938,9.55468 l -0.27149,0.13282 a 11.46294,11.46294 0 0 0 -5.35742,13.46484 c -1.10198,-1.70435 -2.16727,-3.43472 -3.47266,-5 -3.48098,-4.20379 -7.55393,-8.1641 -12.17773,-11.93164 a 11.46294,11.46294 0 0 0 -15.52148,0.96094 l -3.36915,3.52148 a 11.46294,11.46294 0 0 0 0.66602,16.49024 c 2.43264,2.16234 4.47353,4.22664 6.125,6.14648 a 11.46294,11.46294 0 0 0 0.0859,0.0996 c 1.49932,1.70293 2.6632,3.40419 3.56445,5.13867 0.83792,1.61259 1.51032,3.47698 1.98047,5.70117 a 11.46294,11.46294 0 0 0 0.0195,0.0859 c 0.47001,2.14114 0.76758,4.91175 0.76758,8.26367 0,4.45779 -0.53585,7.93222 -1.30664,10.37305 a 11.46294,11.46294 0 0 0 -0.0137,0.0449 c -0.81515,2.61886 -1.98833,4.89325 -3.61914,7.03906 -1.8701,2.46064 -4.38055,5.13818 -7.56641,7.94532 a 11.46294,11.46294 0 0 0 -1.11523,2.33593 11.46294,11.46294 0 0 0 -8.42188,-4.125 h -41.35547 -1.53125 -44.41601 -1.53125 -44.41797 -1.53125 -40.72266 l -30.94531,-63.80273 a 11.46294,11.46294 0 0 0 -1.10547,-0.97852 h 23.76172 a 11.46294,11.46294 0 0 0 11.46094,-11.46093 v -5.62891 a 11.46294,11.46294 0 0 0 -11.46094,-11.46094 z m 290.220707,28.55078 h 26.82617 1.53125 22.44531 l -6.77734,24.83985 a 11.46294,11.46294 0 0 0 -12.33985,-4.58399 l -5.58984,1.91602 a 11.46294,11.46294 0 0 0 -7.05078,14.76953 l 1.50781,4.13477 -19.44727,-40.09766 a 11.46294,11.46294 0 0 0 -1.10546,-0.97852 z m -19.49024,21.98438 c 0.007,0.0182 0.0104,0.0365 0.006,0.0273 -0.003,-0.009 -0.003,-0.0187 -0.006,-0.0273 z"
       transform="matrix(0.96952912,0,0,0.96952912,7.8003264,7.8005454)" />
    <path
       id="path1"
       style="font-size:74.6667px;font-family:'Fira Code';-inkscape-font-specification:'Fira Code';white-space:pre;display:inline;fill:#cad3f5;fill-opacity:1;stroke:#ffffff;stroke-width:0.1"
       sodipodi:type="inkscape:offset"
       inkscape:radius="6.9826241"
       inkscape:original="M 145.04492 66.519531 L 145.04492 72.148438 L 186.39844 72.148438 L 187.92969 72.148438 L 229.2832 72.148438 L 229.2832 66.519531 L 187.92969 66.519531 L 186.39844 66.519531 L 145.04492 66.519531 z M 104.41797 89.589844 L 99.287109 92.115234 L 131.98633 159.46875 L 137.19531 157.17188 L 104.41797 89.589844 z M 242.26367 89.589844 L 237.13281 92.115234 L 269.83398 159.46875 L 275.04102 157.17188 L 242.26367 89.589844 z M 7.1972656 159.85156 L 7.1972656 165.48047 L 48.550781 165.48047 L 50.083984 165.48047 L 91.4375 165.48047 L 91.4375 159.85156 L 50.083984 159.85156 L 48.550781 159.85156 L 7.1972656 159.85156 z M 282.89062 159.85156 L 282.89062 165.48047 L 324.24414 165.48047 L 325.77539 165.48047 L 367.12891 165.48047 L 367.12891 159.85156 L 325.77539 159.85156 L 324.24414 159.85156 L 282.89062 159.85156 z M 12.519531 182.92188 L 7.3886719 185.44922 L 40.089844 252.80273 L 45.296875 250.50586 L 12.519531 182.92188 z M 380.10938 182.92188 L 374.97852 185.44922 L 407.67969 252.80273 L 412.88672 250.50586 L 380.10938 182.92188 z M 53.146484 253.18555 L 53.146484 258.81445 L 94.5 258.81445 L 96.03125 258.81445 L 137.38672 258.81445 L 137.38672 253.18555 L 96.03125 253.18555 L 94.5 253.18555 L 53.146484 253.18555 z M 282.89062 253.18555 L 282.89062 258.81445 L 324.24414 258.81445 L 325.77539 258.81445 L 367.12891 258.81445 L 367.12891 253.18555 L 325.77539 253.18555 L 324.24414 253.18555 L 282.89062 253.18555 z M 150.36719 276.25586 L 145.23633 278.7832 L 177.93555 346.13672 L 183.14258 343.83789 L 150.36719 276.25586 z M 288.21289 276.25586 L 283.08203 278.7832 L 315.78125 346.13672 L 320.99023 343.83789 L 288.21289 276.25586 z M 99.095703 346.51953 L 99.095703 352.14844 L 137.38672 352.14844 L 137.38672 346.51953 L 99.095703 346.51953 z M 374.78711 346.51953 L 374.78711 352.14844 L 416.14258 352.14844 L 417.67383 352.14844 L 459.02734 352.14844 L 459.02734 346.51953 L 417.67383 346.51953 L 416.14258 346.51953 L 374.78711 346.51953 z M 451.56055 365.22461 L 435.32617 424.72852 L 424.71875 394.70703 L 419.12891 396.62305 L 431.87891 431.58203 L 439.1543 431.58203 L 456.07812 370.73828 L 469.67578 370.73828 L 466.87695 372.11719 L 499.57617 439.46875 L 504.78516 437.17188 L 472.00781 369.58984 L 470.09375 370.5332 L 470.09375 365.22461 L 451.56055 365.22461 z M 341.66602 367.25391 L 338.29688 370.77539 C 341.0538 373.22598 343.45393 375.63965 345.49609 378.01367 C 347.56379 380.36217 349.27401 382.83765 350.62695 385.44141 C 351.97989 388.04517 352.98864 390.91681 353.65234 394.05664 C 354.34158 397.19647 354.68555 400.7696 354.68555 404.77734 C 354.68555 410.1125 354.07296 414.72144 352.84766 418.60156 C 351.64788 422.45615 349.83523 425.97904 347.41016 429.16992 C 344.98508 432.3608 341.94724 435.56288 338.29688 438.7793 L 341.66602 442.30273 C 345.8014 438.93316 349.33782 435.47405 352.27344 431.92578 C 355.23458 428.37751 357.49363 424.42177 359.05078 420.05664 C 360.63346 415.69151 361.42383 410.59752 361.42383 404.77734 C 361.42383 398.95717 360.63346 393.86513 359.05078 389.5 C 357.49363 385.13487 355.23458 381.17912 352.27344 377.63086 C 349.33782 374.08259 345.8014 370.62348 341.66602 367.25391 z M 104.41797 369.58984 L 99.287109 372.11719 L 131.98633 439.46875 L 137.19531 437.17188 L 104.41797 369.58984 z M 380.10938 369.58984 L 374.97852 372.11719 L 407.67969 439.46875 L 412.88672 437.17188 L 380.10938 369.58984 z M 145.04492 439.85156 L 145.04492 445.48047 L 186.39844 445.48047 L 187.92969 445.48047 L 232.34766 445.48047 L 233.87891 445.48047 L 278.29492 445.48047 L 279.82617 445.48047 L 321.18164 445.48047 L 321.18164 439.85156 L 279.82617 439.85156 L 278.29492 439.85156 L 233.87891 439.85156 L 232.34766 439.85156 L 187.92969 439.85156 L 186.39844 439.85156 L 145.04492 439.85156 z "
       d="m 145.04492,59.537109 a 6.9833223,6.9833223 0 0 0 -6.98242,6.982422 v 5.628906 a 6.9833223,6.9833223 0 0 0 6.98242,6.982422 h 41.35352 1.53125 41.35351 a 6.9833223,6.9833223 0 0 0 6.98242,-6.982422 v -5.628906 a 6.9833223,6.9833223 0 0 0 -6.98242,-6.982422 h -41.35351 -1.53125 z M 106.6875,82.986328 a 6.9833223,6.9833223 0 0 0 -5.35352,0.337891 l -5.130855,2.52539 a 6.9833223,6.9833223 0 0 0 -3.197266,9.314453 l 32.699221,67.353518 a 6.9833223,6.9833223 0 0 0 9.09765,3.33984 l 5.20899,-2.29687 a 6.9833223,6.9833223 0 0 0 3.4668,-9.43555 L 110.70117,86.542969 a 6.9833223,6.9833223 0 0 0 -4.01367,-3.556641 z m 137.8457,0 a 6.9833223,6.9833223 0 0 0 -5.35351,0.337891 l -5.13086,2.52539 a 6.9833223,6.9833223 0 0 0 -3.19727,9.314453 l 32.70117,67.353518 a 6.9833223,6.9833223 0 0 0 9.09961,3.33984 l 3.25586,-1.43555 v 1.0586 a 6.9833223,6.9833223 0 0 0 6.98242,6.98242 h 41.35352 1.53125 41.35352 a 6.9833223,6.9833223 0 0 0 6.98242,-6.98242 v -5.62891 a 6.9833223,6.9833223 0 0 0 -6.98242,-6.98242 h -41.35352 -1.53125 -41.35352 a 6.9833223,6.9833223 0 0 0 -1.8125,0.75 L 248.54687,86.542969 A 6.9833223,6.9833223 0 0 0 244.5332,82.986328 Z M 7.1972656,152.86914 a 6.9833223,6.9833223 0 0 0 -6.98242185,6.98242 v 5.62891 a 6.9833223,6.9833223 0 0 0 6.98242185,6.98242 H 48.550781 50.083984 91.4375 a 6.9833223,6.9833223 0 0 0 6.982422,-6.98242 v -5.62891 A 6.9833223,6.9833223 0 0 0 91.4375,152.86914 H 50.083984 48.550781 Z m 7.5898434,23.44922 a 6.9833223,6.9833223 0 0 0 -5.3535152,0.33984 l -5.1308594,2.52735 a 6.9833223,6.9833223 0 0 0 -3.1953125,9.3125 l 32.7011721,67.35351 a 6.9833223,6.9833223 0 0 0 9.099609,3.33985 l 3.255859,-1.43555 v 1.05859 a 6.9833223,6.9833223 0 0 0 6.982422,6.98242 H 94.5 h 1.53125 41.35547 a 6.9833223,6.9833223 0 0 0 6.98242,-6.98242 v -5.6289 a 6.9833223,6.9833223 0 0 0 -6.98242,-6.98243 H 96.03125 94.5 53.146484 a 6.9833223,6.9833223 0 0 0 -1.8125,0.75 L 18.802734,179.875 a 6.9833223,6.9833223 0 0 0 -4.015625,-3.55664 z m 367.589841,0 a 6.9833223,6.9833223 0 0 0 -5.35351,0.33984 l -5.13086,2.52735 a 6.9833223,6.9833223 0 0 0 -3.19531,9.3125 l 32.70117,67.35351 a 6.9833223,6.9833223 0 0 0 9.09961,3.33985 l 5.20703,-2.29688 a 6.9833223,6.9833223 0 0 0 3.46484,-9.43555 L 386.39258,179.875 a 6.9833223,6.9833223 0 0 0 -4.01563,-3.55664 z m -99.48633,69.88476 a 6.9833223,6.9833223 0 0 0 -6.98242,6.98243 v 5.6289 a 6.9833223,6.9833223 0 0 0 6.98242,6.98242 h 41.35352 1.53125 41.35352 a 6.9833223,6.9833223 0 0 0 6.98242,-6.98242 v -5.6289 a 6.9833223,6.9833223 0 0 0 -6.98242,-6.98243 h -41.35352 -1.53125 z m -130.25585,23.44922 a 6.9833223,6.9833223 0 0 0 -5.35352,0.33985 l -5.13086,2.52734 a 6.9833223,6.9833223 0 0 0 -3.19531,9.3125 l 32.69922,67.35352 a 6.9833223,6.9833223 0 0 0 9.10156,3.33984 l 5.20703,-2.29883 a 6.9833223,6.9833223 0 0 0 3.46289,-9.43554 l -32.77539,-67.58204 a 6.9833223,6.9833223 0 0 0 -4.01562,-3.55664 z m 137.8457,0 a 6.9833223,6.9833223 0 0 0 -5.35352,0.33985 l -5.13086,2.52734 a 6.9833223,6.9833223 0 0 0 -3.19531,9.3125 L 309.5,349.18555 a 6.9833223,6.9833223 0 0 0 9.09961,3.33984 l 5.20898,-2.29883 a 6.9833223,6.9833223 0 0 0 3.46485,-9.43554 l -32.77735,-67.58204 a 6.9833223,6.9833223 0 0 0 -4.01562,-3.55664 z M 99.095703,339.53711 a 6.9833223,6.9833223 0 0 0 -6.982422,6.98242 v 5.62891 a 6.9833223,6.9833223 0 0 0 6.982422,6.98242 h 38.291017 a 6.9833223,6.9833223 0 0 0 6.98242,-6.98242 v -5.62891 a 6.9833223,6.9833223 0 0 0 -6.98242,-6.98242 z m 275.691407,0 a 6.9833223,6.9833223 0 0 0 -6.98242,6.98242 v 5.62891 a 6.9833223,6.9833223 0 0 0 6.98242,6.98242 h 41.35547 1.53125 31.25976 a 6.9833223,6.9833223 0 0 0 -4.10937,4.25586 l -10.35547,37.95508 -3.16602,-8.96094 a 6.9833223,6.9833223 0 0 0 -8.84765,-4.2793 l -5.58985,1.91602 a 6.9833223,6.9833223 0 0 0 -4.29687,8.99804 l 12.75,34.95899 a 6.9833223,6.9833223 0 0 0 6.56055,4.58984 h 7.27539 a 6.9833223,6.9833223 0 0 0 6.72656,-5.11133 l 15.50195,-55.73242 h 0.45313 l 31.45898,64.79688 a 6.9833223,6.9833223 0 0 0 9.09766,3.33984 l 5.20898,-2.29687 a 6.9833223,6.9833223 0 0 0 3.4668,-9.43555 l -32.77734,-67.58203 a 6.9833223,6.9833223 0 0 0 -1.21485,-1.07617 v -0.24219 a 6.9833223,6.9833223 0 0 0 -6.98242,-6.98242 h -8.91992 a 6.9833223,6.9833223 0 0 0 4.83594,-6.09375 v -5.62891 a 6.9833223,6.9833223 0 0 0 -6.98243,-6.98242 h -41.35351 -1.53125 z m -33.55274,20.74805 a 6.9833223,6.9833223 0 0 0 -4.61328,2.14257 l -3.36914,3.52149 a 6.9833223,6.9833223 0 0 0 0.40625,10.04492 c 2.55937,2.27499 4.74078,4.47494 6.54492,6.57227 a 6.9833223,6.9833223 0 0 0 0.0527,0.0605 c 1.72144,1.95522 3.09801,3.95902 4.17578,6.03321 1.03918,1.99993 1.84288,4.25783 2.38867,6.83984 a 6.9833223,6.9833223 0 0 0 0.0117,0.0547 c 0.55569,2.53142 0.87109,5.61444 0.87109,9.22265 0,4.80066 -0.56526,8.71742 -1.51367,11.72071 a 6.9833223,6.9833223 0 0 0 -0.01,0.0273 c -0.96546,3.10177 -2.38692,5.86571 -4.32813,8.41992 -2.08697,2.74601 -4.80449,5.62862 -8.17187,8.59571 A 6.9833223,6.9833223 0 0 0 333.25,443.60547 l 3.36914,3.52344 a 6.9833223,6.9833223 0 0 0 9.45703,0.58789 c 4.43286,-3.61197 8.29648,-7.3784 11.56445,-11.32618 3.47078,-4.16104 6.15518,-8.86298 7.98047,-13.9746 1.91695,-5.29608 2.78516,-11.19464 2.78516,-17.63868 0,-6.44403 -0.86843,-12.34127 -2.78516,-17.63672 -1.82529,-5.11162 -4.50968,-9.81356 -7.98047,-13.9746 -3.26797,-3.94778 -7.13159,-7.71421 -11.56445,-11.32618 a 6.9833223,6.9833223 0 0 0 -4.8418,-1.55468 z m -234.54882,2.70117 a 6.9833223,6.9833223 0 0 0 -5.35352,0.33984 l -5.130858,2.52735 a 6.9833223,6.9833223 0 0 0 -3.195313,9.3125 l 32.699221,67.35156 a 6.9833223,6.9833223 0 0 0 9.09765,3.33984 l 3.25977,-1.4375 v 1.06055 a 6.9833223,6.9833223 0 0 0 6.98242,6.98242 h 41.35352 1.53125 44.41797 1.53125 44.41601 1.53125 41.35547 a 6.9833223,6.9833223 0 0 0 6.98242,-6.98242 v -5.62891 a 6.9833223,6.9833223 0 0 0 -6.98242,-6.98242 h -41.35547 -1.53125 -44.41601 -1.53125 -44.41797 -1.53125 -41.35352 a 6.9833223,6.9833223 0 0 0 -1.8125,0.75 l -32.53125,-67.07617 a 6.9833223,6.9833223 0 0 0 -4.01562,-3.55664 z m 275.6914,0 a 6.9833223,6.9833223 0 0 0 -5.35351,0.33984 l -5.13086,2.52735 a 6.9833223,6.9833223 0 0 0 -3.19531,9.3125 l 32.70117,67.35156 a 6.9833223,6.9833223 0 0 0 9.09961,3.33984 l 5.20703,-2.29687 a 6.9833223,6.9833223 0 0 0 3.46484,-9.43555 l -32.77734,-67.58203 a 6.9833223,6.9833223 0 0 0 -4.01563,-3.55664 z"
       transform="matrix(0.96952912,0,0,0.96952912,7.8003264,7.8005454)" />
  </g>
</svg>
