<?xml version="1.0" encoding="UTF-8" standalone="no"?>
<!-- Created with Inkscape (http://www.inkscape.org/) -->

<svg
   width="512"
   height="512"
   viewBox="0 0 512 512"
   version="1.1"
   id="svg1"
   xmlns:inkscape="http://www.inkscape.org/namespaces/inkscape"
   xmlns:sodipodi="http://sodipodi.sourceforge.net/DTD/sodipodi-0.dtd"
   xmlns="http://www.w3.org/2000/svg"
   xmlns:svg="http://www.w3.org/2000/svg">
  <sodipodi:namedview
     id="namedview1"
     pagecolor="#505050"
     bordercolor="#eeeeee"
     borderopacity="1"
     inkscape:showpageshadow="0"
     inkscape:pageopacity="0"
     inkscape:pagecheckerboard="0"
     inkscape:deskcolor="#505050"
     inkscape:document-units="px">
    <inkscape:page
       x="0"
       y="0"
       width="512"
       height="512"
       id="page2"
       margin="0"
       bleed="0" />
  </sodipodi:namedview>
  <defs
     id="defs1" />
  <path
     style="fill:#363a4f;fill-opacity:1;stroke:none;stroke-width:0.1"
     d="M 44.812493,255.69481 9.5556051,184.19253 8.5670942,162.44529 137.40301,165.08132 91.272504,70.184272 l 138.062016,0.329503 45.80101,92.590515 91.2725,-0.659 46.78951,94.23803 -135.42599,0.32951 48.10753,100.8281 22.73575,20.09973 6.91958,17.13418 v 29.32583 l -8.5671,7.57858 -11.53262,8.8966 -197.37267,2.63603 L 91.602007,349.93285 181.22699,349.60334 136.085,255.0358 Z"
     id="path3" />
  <path
     style="fill:#363a4f;fill-opacity:1;stroke:none;stroke-width:0.1"
     d="m 411.87953,440.7111 91.93151,-0.49426 -44.48299,-90.77825 -89.13073,0.16475 z"
     id="path4" />
  <g
     inkscape:label="Layer 1"
     inkscape:groupmode="layer"
     id="layer1"
     style="display:inline">
    <path
       d="M 145.04406,72.147611 V 66.51889 h 42.88549 v 5.628721 z m 41.3539,0 V 66.51889 h 42.88549 v 5.628721 z M 7.1977487,165.48099 v -5.62872 H 50.08324 v 5.62872 z m 41.3538983,0 v -5.62872 h 42.885491 v 5.62872 z m 50.7351,-73.364826 5.130943,-2.527181 32.77676,67.582937 -5.20752,2.29744 z m 137.846323,0 5.13094,-2.527181 32.77677,67.582937 -5.20753,2.29744 z m 45.7573,73.364826 v -5.62872 h 42.88549 v 5.62872 z m 41.35392,0 v -5.62872 h 42.88549 v 5.62872 z m -316.8550882,19.96855 5.1309422,-2.52718 32.776768,67.58294 -5.207523,2.29743 z m 45.7573192,73.36482 v -5.62872 h 42.885491 v 5.62872 z m 41.353899,0 v -5.62872 h 42.88549 v 5.62872 z m 188.38995,0 v -5.62872 h 42.88549 v 5.62872 z m 41.35392,0 v -5.62872 h 42.88549 v 5.62872 z m 50.73509,-73.36482 5.13094,-2.52718 32.77677,67.58294 -5.20752,2.29743 z M 99.095294,352.14773 v -5.62872 h 38.290616 v 5.62872 z m 46.140216,-73.36482 5.13095,-2.52718 32.77676,67.58294 -5.20752,2.29744 z m 137.84632,0 5.13094,-2.52718 32.77677,67.58294 -5.20753,2.29744 z m 91.7061,73.36482 v -5.62872 h 42.88549 v 5.62872 z m 41.35388,0 v -5.62872 h 42.88549 v 5.62872 z m -316.855063,19.96856 5.130943,-2.52718 32.77676,67.58293 -5.20752,2.29744 z m 45.757313,73.36482 v -5.62872 h 42.88549 v 5.62872 z m 41.3539,0 v -5.62872 h 47.48037 v 5.62872 z m 45.94878,0 v -5.62872 h 47.48036 v 5.62872 z m 45.94876,0 v -5.62872 h 42.88549 v 5.62872 z m 76.38983,-40.70293 q 0,-6.01162 -1.03385,-10.72137 -0.99555,-4.70975 -3.02495,-8.61539 -2.02941,-3.90564 -5.13095,-7.42838 -3.06325,-3.56103 -7.19863,-7.23692 l 3.36957,-3.52274 q 6.20308,5.05436 10.6065,10.37676 4.44171,5.32239 6.77744,11.87009 2.37402,6.54769 2.37402,15.27795 0,8.73026 -2.37402,15.27796 -2.33573,6.54769 -6.77744,11.87009 -4.40342,5.3224 -10.6065,10.37676 l -3.36957,-3.52274 q 5.47555,-4.82462 9.11316,-9.61094 3.63761,-4.78633 5.43727,-10.56821 1.83795,-5.82018 1.83795,-13.82292 z m 20.29405,-32.66189 5.13094,-2.52718 32.77677,67.58293 -5.20752,2.29744 z m 95.11391,-6.89231 v 5.51384 h -14.01436 l -16.92446,60.84379 h -7.27521 l -12.75078,-34.95933 5.59043,-1.91453 10.6065,30.01984 16.23522,-59.50361 z m -3.21636,6.89231 5.13094,-2.52718 32.77677,67.58293 -5.20752,2.29744 z"
       id="text2"
       style="font-size:74.6667px;font-family:'Fira Code';-inkscape-font-specification:'Fira Code';white-space:pre;display:inline;fill:#cad3f5;fill-opacity:1;stroke:#ffffff;stroke-width:0.1"
       aria-label="   __&#10;__\  \__&#10;\__   __\&#10;  _\  \ __&#10;  \____)\√\" />
  </g>
</svg>
