<?xml version="1.0" encoding="UTF-8" standalone="no"?>
<!-- Created with Inkscape (http://www.inkscape.org/) -->

<svg
   width="512"
   height="512"
   viewBox="0 0 512 512"
   version="1.1"
   id="svg1"
   sodipodi:docname="icon.svg"
   inkscape:export-filename="icon.svg"
   inkscape:export-xdpi="96"
   inkscape:export-ydpi="96"
   xmlns:inkscape="http://www.inkscape.org/namespaces/inkscape"
   xmlns:sodipodi="http://sodipodi.sourceforge.net/DTD/sodipodi-0.dtd"
   xmlns="http://www.w3.org/2000/svg"
   xmlns:svg="http://www.w3.org/2000/svg">
  <sodipodi:namedview
     id="namedview1"
     pagecolor="#505050"
     bordercolor="#eeeeee"
     borderopacity="1"
     inkscape:showpageshadow="0"
     inkscape:pageopacity="0"
     inkscape:pagecheckerboard="0"
     inkscape:deskcolor="#505050"
     inkscape:document-units="px"
     showgrid="true">
    <inkscape:page
       x="0"
       y="0"
       width="512"
       height="512"
       id="page2"
       margin="0"
       bleed="0" />
    <inkscape:grid
       id="grid1"
       units="px"
       originx="0"
       originy="0"
       spacingx="0.5"
       spacingy="0.5"
       empcolor="#0099e5"
       empopacity="0.30196078"
       color="#0099e5"
       opacity="0.14901961"
       empspacing="2"
       enabled="true"
       visible="true" />
  </sodipodi:namedview>
  <defs
     id="defs1" />
  <path
     style="fill:#363a4f;fill-opacity:1;stroke:none;stroke-width:0.1"
     d="M 44.812493,255.69481 9.5556051,184.19253 8.5670942,162.44529 137.40301,165.08132 91.272504,70.184272 l 138.062016,0.329503 45.80101,92.590515 91.2725,-0.659 46.78951,94.23803 -135.42599,0.32951 48.10753,100.8281 22.73575,20.09973 6.91958,17.13418 v 29.32583 l -8.5671,7.57858 -11.53262,8.8966 -197.37267,2.63603 L 91.602007,349.93285 181.22699,349.60334 136.085,255.0358 Z"
     id="path3" />
  <path
     style="fill:#363a4f;fill-opacity:1;stroke:none;stroke-width:0.1"
     d="m 411.87953,440.7111 91.93151,-0.49426 -44.48299,-90.77825 -89.13073,0.16475 z"
     id="path4" />
  <g
     inkscape:label="Layer 1"
     inkscape:groupmode="layer"
     id="layer1"
     style="display:inline">
    <path
       id="text2"
       style="font-size:74.6667px;font-family:'Fira Code';-inkscape-font-specification:'Fira Code';white-space:pre;display:inline;fill:#cad3f5;fill-opacity:1;stroke:#ffffff;stroke-width:0.1"
       sodipodi:type="inkscape:offset"
       inkscape:radius="4.3698549"
       inkscape:original="M 145.04492 66.519531 L 145.04492 72.148438 L 186.39844 72.148438 L 187.92969 72.148438 L 229.2832 72.148438 L 229.2832 66.519531 L 187.92969 66.519531 L 186.39844 66.519531 L 145.04492 66.519531 z M 104.41797 89.589844 L 99.287109 92.115234 L 131.98633 159.46875 L 137.19531 157.17188 L 104.41797 89.589844 z M 242.26367 89.589844 L 237.13281 92.115234 L 269.83398 159.46875 L 275.04102 157.17188 L 242.26367 89.589844 z M 7.1972656 159.85156 L 7.1972656 165.48047 L 48.550781 165.48047 L 50.083984 165.48047 L 91.4375 165.48047 L 91.4375 159.85156 L 50.083984 159.85156 L 48.550781 159.85156 L 7.1972656 159.85156 z M 282.89062 159.85156 L 282.89062 165.48047 L 324.24414 165.48047 L 325.77539 165.48047 L 367.12891 165.48047 L 367.12891 159.85156 L 325.77539 159.85156 L 324.24414 159.85156 L 282.89062 159.85156 z M 12.519531 182.92188 L 7.3886719 185.44922 L 40.089844 252.80273 L 45.296875 250.50586 L 12.519531 182.92188 z M 380.10938 182.92188 L 374.97852 185.44922 L 407.67969 252.80273 L 412.88672 250.50586 L 380.10938 182.92188 z M 53.146484 253.18555 L 53.146484 258.81445 L 94.5 258.81445 L 96.03125 258.81445 L 137.38672 258.81445 L 137.38672 253.18555 L 96.03125 253.18555 L 94.5 253.18555 L 53.146484 253.18555 z M 282.89062 253.18555 L 282.89062 258.81445 L 324.24414 258.81445 L 325.77539 258.81445 L 367.12891 258.81445 L 367.12891 253.18555 L 325.77539 253.18555 L 324.24414 253.18555 L 282.89062 253.18555 z M 150.36719 276.25586 L 145.23633 278.7832 L 177.93555 346.13672 L 183.14258 343.83789 L 150.36719 276.25586 z M 288.21289 276.25586 L 283.08203 278.7832 L 315.78125 346.13672 L 320.99023 343.83789 L 288.21289 276.25586 z M 99.095703 346.51953 L 99.095703 352.14844 L 137.38672 352.14844 L 137.38672 346.51953 L 99.095703 346.51953 z M 374.78711 346.51953 L 374.78711 352.14844 L 416.14258 352.14844 L 417.67383 352.14844 L 459.02734 352.14844 L 459.02734 346.51953 L 417.67383 346.51953 L 416.14258 346.51953 L 374.78711 346.51953 z M 451.56055 365.22461 L 435.32617 424.72852 L 424.71875 394.70703 L 419.12891 396.62305 L 431.87891 431.58203 L 439.1543 431.58203 L 456.07812 370.73828 L 469.67578 370.73828 L 466.87695 372.11719 L 499.57617 439.46875 L 504.78516 437.17188 L 472.00781 369.58984 L 470.09375 370.5332 L 470.09375 365.22461 L 451.56055 365.22461 z M 341.66602 367.25391 L 338.29688 370.77539 C 341.0538 373.22598 343.45393 375.63965 345.49609 378.01367 C 347.56379 380.36217 349.27401 382.83765 350.62695 385.44141 C 351.97989 388.04517 352.98864 390.91681 353.65234 394.05664 C 354.34158 397.19647 354.68555 400.7696 354.68555 404.77734 C 354.68555 410.1125 354.07296 414.72144 352.84766 418.60156 C 351.64788 422.45615 349.83523 425.97904 347.41016 429.16992 C 344.98508 432.3608 341.94724 435.56288 338.29688 438.7793 L 341.66602 442.30273 C 345.8014 438.93316 349.33782 435.47405 352.27344 431.92578 C 355.23458 428.37751 357.49363 424.42177 359.05078 420.05664 C 360.63346 415.69151 361.42383 410.59752 361.42383 404.77734 C 361.42383 398.95717 360.63346 393.86513 359.05078 389.5 C 357.49363 385.13487 355.23458 381.17912 352.27344 377.63086 C 349.33782 374.08259 345.8014 370.62348 341.66602 367.25391 z M 104.41797 369.58984 L 99.287109 372.11719 L 131.98633 439.46875 L 137.19531 437.17188 L 104.41797 369.58984 z M 380.10938 369.58984 L 374.97852 372.11719 L 407.67969 439.46875 L 412.88672 437.17188 L 380.10938 369.58984 z M 145.04492 439.85156 L 145.04492 445.48047 L 186.39844 445.48047 L 187.92969 445.48047 L 232.34766 445.48047 L 233.87891 445.48047 L 278.29492 445.48047 L 279.82617 445.48047 L 321.18164 445.48047 L 321.18164 439.85156 L 279.82617 439.85156 L 278.29492 439.85156 L 233.87891 439.85156 L 232.34766 439.85156 L 187.92969 439.85156 L 186.39844 439.85156 L 145.04492 439.85156 z "
       d="m 145.04492,62.150391 a 4.3702919,4.3702919 0 0 0 -4.36914,4.36914 v 5.628906 a 4.3702919,4.3702919 0 0 0 4.36914,4.369141 h 41.35352 1.53125 41.35351 a 4.3702919,4.3702919 0 0 0 4.36914,-4.369141 v -5.628906 a 4.3702919,4.3702919 0 0 0 -4.36914,-4.36914 h -41.35351 -1.53125 z m -39.20703,23.30664 a 4.3702919,4.3702919 0 0 0 -3.34961,0.212891 l -5.130858,2.52539 a 4.3702919,4.3702919 0 0 0 -2.001953,5.828125 l 32.699221,67.353513 a 4.3702919,4.3702919 0 0 0 5.69531,2.08985 l 5.20898,-2.29688 a 4.3702919,4.3702919 0 0 0 2.16797,-5.9043 L 108.34961,87.683594 a 4.3702919,4.3702919 0 0 0 -2.51172,-2.226563 z m 137.8457,0 a 4.3702919,4.3702919 0 0 0 -3.34961,0.212891 l -5.13086,2.52539 a 4.3702919,4.3702919 0 0 0 -2.00195,5.828125 l 32.70117,67.353513 a 4.3702919,4.3702919 0 0 0 5.69532,2.08985 l 5.20703,-2.29688 a 4.3702919,4.3702919 0 0 0 1.92773,-1.82617 4.3702919,4.3702919 0 0 0 -0.21094,0.50781 v 5.62891 a 4.3702919,4.3702919 0 0 0 4.36914,4.36914 h 41.35352 1.53125 41.35352 a 4.3702919,4.3702919 0 0 0 4.36914,-4.36914 v -5.62891 a 4.3702919,4.3702919 0 0 0 -4.36914,-4.36914 h -41.35352 -1.53125 -41.35352 a 4.3702919,4.3702919 0 0 0 -3.66796,2.67774 4.3702919,4.3702919 0 0 0 -0.25,-2.89454 L 246.19531,87.683594 a 4.3702919,4.3702919 0 0 0 -2.51172,-2.226563 z M 7.1972656,155.48242 a 4.3702919,4.3702919 0 0 0 -4.3691406,4.36914 v 5.62891 a 4.3702919,4.3702919 0 0 0 4.3691406,4.36914 H 48.550781 50.083984 91.4375 a 4.3702919,4.3702919 0 0 0 4.369141,-4.36914 v -5.62891 A 4.3702919,4.3702919 0 0 0 91.4375,155.48242 H 50.083984 48.550781 Z m 6.7421874,23.30664 a 4.3702919,4.3702919 0 0 0 -3.351562,0.21289 l -5.1308598,2.52735 a 4.3702919,4.3702919 0 0 0 -1.9999999,5.82812 l 32.7011717,67.35352 a 4.3702919,4.3702919 0 0 0 5.695313,2.08984 l 5.207031,-2.29687 a 4.3702919,4.3702919 0 0 0 1.927734,-1.82618 4.3702919,4.3702919 0 0 0 -0.210937,0.50782 v 5.6289 a 4.3702919,4.3702919 0 0 0 4.36914,4.36914 H 94.5 h 1.53125 41.35547 a 4.3702919,4.3702919 0 0 0 4.36914,-4.36914 v -5.6289 a 4.3702919,4.3702919 0 0 0 -4.36914,-4.36914 H 96.03125 94.5 53.146484 a 4.3702919,4.3702919 0 0 0 -3.667968,2.67773 4.3702919,4.3702919 0 0 0 -0.25,-2.89453 L 16.451172,181.01562 a 4.3702919,4.3702919 0 0 0 -2.511719,-2.22656 z m 367.589847,0 a 4.3702919,4.3702919 0 0 0 -3.35157,0.21289 l -5.13086,2.52735 a 4.3702919,4.3702919 0 0 0 -2,5.82812 l 32.70118,67.35352 a 4.3702919,4.3702919 0 0 0 5.69531,2.08984 l 5.20703,-2.29687 a 4.3702919,4.3702919 0 0 0 2.16797,-5.9043 l -32.77734,-67.58399 a 4.3702919,4.3702919 0 0 0 -2.51172,-2.22656 z m -98.63868,70.02735 a 4.3702919,4.3702919 0 0 0 -4.36914,4.36914 v 5.6289 a 4.3702919,4.3702919 0 0 0 4.36914,4.36914 h 41.35352 1.53125 41.35352 a 4.3702919,4.3702919 0 0 0 4.36914,-4.36914 v -5.6289 a 4.3702919,4.3702919 0 0 0 -4.36914,-4.36914 h -41.35352 -1.53125 z m -131.10351,23.30664 a 4.3702919,4.3702919 0 0 0 -3.35156,0.21289 l -5.13086,2.52734 a 4.3702919,4.3702919 0 0 0 -2,5.82813 l 32.69922,67.35351 a 4.3702919,4.3702919 0 0 0 5.69726,2.08985 l 5.20703,-2.29883 a 4.3702919,4.3702919 0 0 0 2.16602,-5.9043 l -32.77539,-67.58203 a 4.3702919,4.3702919 0 0 0 -2.51172,-2.22656 z m 137.8457,0 a 4.3702919,4.3702919 0 0 0 -3.35156,0.21289 l -5.13086,2.52734 a 4.3702919,4.3702919 0 0 0 -2,5.82813 l 32.69922,67.35351 a 4.3702919,4.3702919 0 0 0 5.69531,2.08985 l 5.20899,-2.29883 a 4.3702919,4.3702919 0 0 0 2.16796,-5.9043 l -32.77734,-67.58203 a 4.3702919,4.3702919 0 0 0 -2.51172,-2.22656 z M 99.095703,342.15039 a 4.3702919,4.3702919 0 0 0 -4.369141,4.36914 v 5.62891 a 4.3702919,4.3702919 0 0 0 4.369141,4.36914 h 38.291017 a 4.3702919,4.3702919 0 0 0 4.36914,-4.36914 v -5.62891 a 4.3702919,4.3702919 0 0 0 -4.36914,-4.36914 z m 275.691407,0 a 4.3702919,4.3702919 0 0 0 -4.36914,4.36914 v 5.62891 a 4.3702919,4.3702919 0 0 0 4.36914,4.36914 h 41.35547 1.53125 41.35351 a 4.3702919,4.3702919 0 0 0 4.36914,-4.36914 v -5.62891 a 4.3702919,4.3702919 0 0 0 -4.36914,-4.36914 h -41.35351 -1.53125 z m 76.77344,18.70508 a 4.3702919,4.3702919 0 0 0 -4.21485,3.21875 l -12.55468,46.01953 -5.95118,-16.8418 a 4.3702919,4.3702919 0 0 0 -5.53711,-2.67773 l -5.58984,1.91601 a 4.3702919,4.3702919 0 0 0 -2.68945,5.63086 l 12.75,34.95899 a 4.3702919,4.3702919 0 0 0 4.10547,2.87109 h 7.27539 a 4.3702919,4.3702919 0 0 0 4.21093,-3.19726 l 16.03321,-57.64649 h 4.07226 l 32.17383,66.26953 a 4.3702919,4.3702919 0 0 0 5.69531,2.08985 l 5.20899,-2.29688 a 4.3702919,4.3702919 0 0 0 2.16797,-5.9043 l -32.77735,-67.58203 a 4.3702919,4.3702919 0 0 0 -1.47656,-1.30859 v -1.15039 a 4.3702919,4.3702919 0 0 0 -4.36914,-4.36914 z m -110.16407,2.03711 a 4.3702919,4.3702919 0 0 0 -2.88867,1.33984 l -3.36914,3.52149 a 4.3702919,4.3702919 0 0 0 0.25586,6.28711 c 2.63329,2.34069 4.89586,4.6214 6.78906,6.82226 a 4.3702919,4.3702919 0 0 0 0.0332,0.0371 c 1.851,2.10237 3.35247,4.2843 4.5332,6.55664 1.15659,2.22587 2.03704,4.71317 2.62695,7.50391 a 4.3702919,4.3702919 0 0 0 0.008,0.0332 c 0.60565,2.75908 0.93164,6.0255 0.93164,9.7832 0,5.00066 -0.58471,9.17643 -1.63672,12.50782 a 4.3702919,4.3702919 0 0 0 -0.004,0.0176 c -1.05314,3.38347 -2.62188,6.43022 -4.74414,9.22266 -2.21349,2.91247 -5.05017,5.91423 -8.52344,8.97461 a 4.3702919,4.3702919 0 0 0 -0.26953,6.29883 l 3.36914,3.52344 a 4.3702919,4.3702919 0 0 0 5.91797,0.36718 c 4.32339,-3.52276 8.06644,-7.1745 11.21094,-10.97461 3.27706,-3.9294 5.79931,-8.34908 7.52344,-13.17773 1.79285,-4.9488 2.63281,-10.54776 2.63281,-16.75977 0,-6.21199 -0.8401,-11.8094 -2.63281,-16.75781 -1.72351,-4.82692 -4.24418,-9.24548 -7.51954,-13.17383 l -0.004,-0.004 c -3.1445,-3.80011 -6.88755,-7.45185 -11.21094,-10.97461 a 4.3702919,4.3702919 0 0 0 -3.0293,-0.97461 z m -235.55859,2.56445 a 4.3702919,4.3702919 0 0 0 -3.35156,0.21289 l -5.130861,2.52735 a 4.3702919,4.3702919 0 0 0 -2,5.82812 l 32.699221,67.35156 a 4.3702919,4.3702919 0 0 0 5.69531,2.08985 l 5.20898,-2.29688 a 4.3702919,4.3702919 0 0 0 1.92774,-1.82617 4.3702919,4.3702919 0 0 0 -0.21094,0.50781 v 5.62891 a 4.3702919,4.3702919 0 0 0 4.36914,4.36914 h 41.35352 1.53125 44.41797 1.53125 44.41601 1.53125 41.35547 a 4.3702919,4.3702919 0 0 0 4.36914,-4.36914 v -5.62891 a 4.3702919,4.3702919 0 0 0 -4.36914,-4.36914 h -41.35547 -1.53125 -44.41601 -1.53125 -44.41797 -1.53125 -41.35352 a 4.3702919,4.3702919 0 0 0 -3.66797,2.67774 4.3702919,4.3702919 0 0 0 -0.25,-2.89454 l -32.77734,-67.58203 a 4.3702919,4.3702919 0 0 0 -2.51172,-2.22656 z m 275.69141,0 a 4.3702919,4.3702919 0 0 0 -3.35157,0.21289 l -5.13086,2.52735 a 4.3702919,4.3702919 0 0 0 -2,5.82812 l 32.70118,67.35156 a 4.3702919,4.3702919 0 0 0 5.69531,2.08985 l 5.20703,-2.29688 a 4.3702919,4.3702919 0 0 0 2.16797,-5.9043 l -32.77734,-67.58203 a 4.3702919,4.3702919 0 0 0 -2.51172,-2.22656 z" />
  </g>
</svg>
