<?xml version="1.0" encoding="UTF-8" standalone="no"?>
<!-- Created with Inkscape (http://www.inkscape.org/) -->

<svg
   width="16"
   height="16"
   viewBox="0 0 16 16"
   version="1.1"
   id="svg1"
   inkscape:export-filename="eye_open"
   inkscape:export-xdpi="96"
   inkscape:export-ydpi="96"
   xmlns:inkscape="http://www.inkscape.org/namespaces/inkscape"
   xmlns:sodipodi="http://sodipodi.sourceforge.net/DTD/sodipodi-0.dtd"
   xmlns="http://www.w3.org/2000/svg"
   xmlns:svg="http://www.w3.org/2000/svg">
  <sodipodi:namedview
     id="namedview1"
     pagecolor="#505050"
     bordercolor="#ffffff"
     borderopacity="1"
     inkscape:showpageshadow="0"
     inkscape:pageopacity="0"
     inkscape:pagecheckerboard="1"
     inkscape:deskcolor="#505050"
     inkscape:document-units="px"
     showgrid="true">
    <inkscape:grid
       id="grid1"
       units="px"
       originx="0"
       originy="0"
       spacingx="0.5"
       spacingy="0.5"
       empcolor="#0099e5"
       empopacity="0.30196078"
       color="#0099e5"
       opacity="0.14901961"
       empspacing="2"
       dotted="false"
       gridanglex="30"
       gridanglez="30"
       visible="true" />
  </sodipodi:namedview>
  <defs
     id="defs1" />
  <g
     inkscape:label="Layer 1"
     inkscape:groupmode="layer"
     id="layer1"
     style="display:none;opacity:1">
    <path
       id="path9"
       style="fill:#ffffff;fill-opacity:1;stroke:#6e738d;stroke-width:0;stroke-opacity:1"
       d="M 8,3 A 7,5 0 0 0 1,8 7,5 0 0 0 8,13 7,5 0 0 0 15,8 7,5 0 0 0 8,3 Z M 8,4 A 3.9999995,4 0 0 1 12,8 3.9999995,4 0 0 1 8,12 3.9999995,4 0 0 1 4,8 3.9999995,4 0 0 1 8,4 Z" />
    <circle
       style="fill:#ffffff;fill-opacity:1;stroke:#6e738d;stroke-width:0;stroke-opacity:1"
       id="path10"
       cx="8"
       cy="7.9999995"
       r="2.9999995" />
  </g>
  <g
     inkscape:groupmode="layer"
     id="layer2"
     inkscape:label="Layer 2"
     style="display:inline">
    <path
       id="path11"
       style="fill:#ffffff;fill-opacity:1;stroke:#6e738d;stroke-width:0;stroke-opacity:1"
       d="m 1,8 a 7,5 0 0 0 7,5 7,5 0 0 0 7,-5 H 14 A 6,4 0 0 1 8,12 6,4 0 0 1 2,8 Z" />
  </g>
</svg>
