<?xml version="1.0" encoding="UTF-8" standalone="no"?>
<!-- Created with Inkscape (http://www.inkscape.org/) -->

<svg
   width="16"
   height="16"
   viewBox="0 0 16 16"
   version="1.1"
   id="svg1"
   inkscape:export-filename="folder.svg"
   inkscape:export-xdpi="96"
   inkscape:export-ydpi="96"
   sodipodi:docname="folder.svg"
   xmlns:inkscape="http://www.inkscape.org/namespaces/inkscape"
   xmlns:sodipodi="http://sodipodi.sourceforge.net/DTD/sodipodi-0.dtd"
   xmlns="http://www.w3.org/2000/svg"
   xmlns:svg="http://www.w3.org/2000/svg">
  <sodipodi:namedview
     id="namedview1"
     pagecolor="#505050"
     bordercolor="#ffffff"
     borderopacity="1"
     inkscape:showpageshadow="0"
     inkscape:pageopacity="0"
     inkscape:pagecheckerboard="1"
     inkscape:deskcolor="#505050"
     inkscape:document-units="px"
     showgrid="true">
    <inkscape:grid
       id="grid1"
       units="px"
       originx="0"
       originy="0"
       spacingx="0.5"
       spacingy="0.5"
       empcolor="#0099e5"
       empopacity="0.48627451"
       color="#0099e5"
       opacity="0.17254902"
       empspacing="4"
       dotted="false"
       gridanglex="30"
       gridanglez="30"
       visible="true" />
  </sodipodi:namedview>
  <defs
     id="defs1" />
  <g
     inkscape:label="Layer 1"
     inkscape:groupmode="layer"
     id="layer1">
    <path
       id="rect1"
       style="fill:#ffffff;fill-opacity:1;stroke-width:0"
       d="M 1,4 V 9.0625 A 3.5,3.5 0 0 1 2,8.3417969 V 5 h 12 v 8 H 6.6582031 A 3.5,3.5 0 0 1 5.9375,14 H 15 V 4 Z" />
    <path
       style="fill:#ffffff;fill-opacity:1;stroke-width:0"
       d="M 15,3 V 2 H 9 L 8,3 Z"
       id="path5"
       sodipodi:nodetypes="ccccc" />
    <path
       id="path1"
       style="fill:#ffffff;stroke:#6e738d;stroke-width:0"
       d="M 3.5,9 A 2.5,2.5 0 0 0 1,11.5 2.5,2.5 0 0 0 3.5,14 2.5,2.5 0 0 0 6,11.5 2.5,2.5 0 0 0 3.5,9 Z m 0,1 A 1.5,1.5 0 0 1 5,11.5 1.5,1.5 0 0 1 3.5,13 1.5,1.5 0 0 1 2,11.5 1.5,1.5 0 0 1 3.5,10 Z" />
    <rect
       style="fill:#ffffff;fill-opacity:1;stroke:#6e738d;stroke-width:0"
       id="rect2"
       width="0.5"
       height="1.5"
       x="3.2500005"
       y="10.250001" />
    <rect
       style="fill:#ffffff;fill-opacity:1;stroke:#6e738d;stroke-width:0"
       id="rect3"
       width="0.74999952"
       height="0.5"
       x="3.7500005"
       y="11.250001" />
  </g>
</svg>
