<?xml version="1.0" encoding="UTF-8" standalone="no"?>
<!-- Created with Inkscape (http://www.inkscape.org/) -->

<svg
   width="16"
   height="16"
   viewBox="0 0 16 16"
   version="1.1"
   id="svg1"
   inkscape:export-filename="new_block.svg"
   inkscape:export-xdpi="96"
   inkscape:export-ydpi="96"
   sodipodi:docname="page.svg"
   xmlns:inkscape="http://www.inkscape.org/namespaces/inkscape"
   xmlns:sodipodi="http://sodipodi.sourceforge.net/DTD/sodipodi-0.dtd"
   xmlns="http://www.w3.org/2000/svg"
   xmlns:svg="http://www.w3.org/2000/svg">
  <sodipodi:namedview
     id="namedview1"
     pagecolor="#505050"
     bordercolor="#ffffff"
     borderopacity="1"
     inkscape:showpageshadow="0"
     inkscape:pageopacity="0"
     inkscape:pagecheckerboard="1"
     inkscape:deskcolor="#505050"
     inkscape:document-units="px"
     showgrid="true"
     showguides="true">
    <inkscape:grid
       id="grid1"
       units="px"
       originx="0"
       originy="0"
       spacingx="0.5"
       spacingy="0.5"
       empcolor="#0099e5"
       empopacity="0.30196078"
       color="#0099e5"
       opacity="0.14901961"
       empspacing="2"
       dotted="false"
       gridanglex="30"
       gridanglez="30"
       visible="true"
       snapvisiblegridlinesonly="true" />
    <sodipodi:guide
       position="2.5,13"
       orientation="0,-1"
       id="guide2"
       inkscape:locked="false" />
    <sodipodi:guide
       position="3,13"
       orientation="1,0"
       id="guide3"
       inkscape:locked="false" />
    <sodipodi:guide
       position="13,3"
       orientation="0,-1"
       id="guide4"
       inkscape:locked="false" />
  </sodipodi:namedview>
  <defs
     id="defs1" />
  <g
     inkscape:label="Layer 1"
     inkscape:groupmode="layer"
     id="layer1">
    <path
       id="rect36"
       style="fill:#ffffff;fill-opacity:1;stroke:#6e738d;stroke-width:0"
       d="M 3.7573586,10.831189 4.9809846,9.6075621 6.3951983,11.021776 5.1743341,12.24264 a 2,2 0 0 0 1.927971,-0.513757 2,2 0 0 0 0.306597,-2.4279178 L 9.3009652,7.4089021 A 2,2 0 0 0 11.728882,7.1023053 2,2 0 0 0 12.24264,5.1743344 L 11.021775,6.3951984 9.607562,4.9809852 10.831188,3.7573584 A 2,2 0 0 0 8.9004551,4.2738782 2,2 0 0 0 8.5938583,6.7017952 L 6.7017952,8.5938583 A 2,2 0 0 0 4.2738779,8.9004553 2,2 0 0 0 3.7573586,10.831189 Z" />
  </g>
</svg>
