<?xml version="1.0" encoding="UTF-8" standalone="no"?>
<!-- Created with Inkscape (http://www.inkscape.org/) -->

<svg
   width="16"
   height="15.999999"
   viewBox="0 0 4.2333332 4.233333"
   version="1.1"
   id="svg1"
   sodipodi:docname="bbcode.svg"
   xmlns:inkscape="http://www.inkscape.org/namespaces/inkscape"
   xmlns:sodipodi="http://sodipodi.sourceforge.net/DTD/sodipodi-0.dtd"
   xmlns="http://www.w3.org/2000/svg"
   xmlns:svg="http://www.w3.org/2000/svg">
  <sodipodi:namedview
     id="namedview1"
     pagecolor="#505050"
     bordercolor="#eeeeee"
     borderopacity="1"
     inkscape:showpageshadow="0"
     inkscape:pageopacity="0"
     inkscape:pagecheckerboard="0"
     inkscape:deskcolor="#505050"
     inkscape:document-units="px"
     showgrid="true">
    <inkscape:grid
       id="grid1"
       units="px"
       originx="0"
       originy="0"
       spacingx="0.13229166"
       spacingy="0.13229166"
       empcolor="#0099e5"
       empopacity="0.30196078"
       color="#0099e5"
       opacity="0.14901961"
       empspacing="2"
       enabled="true"
       visible="true"
       snapvisiblegridlinesonly="true" />
    <inkscape:page
       x="0"
       y="0"
       width="4.2333331"
       height="4.2333331"
       id="page2"
       margin="0"
       bleed="0" />
  </sodipodi:namedview>
  <defs
     id="defs1" />
  <g
     inkscape:label="Layer 1"
     inkscape:groupmode="layer"
     id="layer1">
    <rect
       style="fill:#a5adcb;stroke-width:0.250572;fill-opacity:1"
       id="rect1"
       width="0.26458332"
       height="2.6458333"
       x="0.79374999"
       y="0.79374999" />
    <rect
       style="fill:#a5adcb;stroke-width:0.370641;fill-opacity:1"
       id="rect2"
       width="0.52916664"
       height="0.26458332"
       x="1.0583333"
       y="0.79374999" />
    <rect
       style="fill:#a5adcb;stroke-width:0.442777;fill-opacity:1"
       id="rect3"
       width="0.52916664"
       height="0.26458332"
       x="1.0583333"
       y="3.175" />
    <rect
       style="fill:#a5adcb;stroke-width:0.270597;fill-opacity:1"
       id="rect4"
       width="0.26458332"
       height="2.6458333"
       x="3.175"
       y="0.79374999" />
    <rect
       style="fill:#a5adcb;stroke-width:0.426271;fill-opacity:1"
       id="rect5"
       width="0.52916664"
       height="0.26458332"
       x="2.6458333"
       y="3.175" />
    <rect
       style="fill:#a5adcb;stroke-width:0.396514;fill-opacity:1"
       id="rect6"
       width="0.52916664"
       height="0.26458332"
       x="2.6458333"
       y="0.79374999" />
    <path
       id="rect7"
       style="fill:#a5adcb;stroke-width:0.261548;fill-opacity:1"
       d="m 1.2567708,1.3229166 v 1.190625 0.396875 h 0.2645834 v -0.023771 a 0.39687499,0.39687499 0 0 0 0.1322916,0.023771 0.39687499,0.39687499 0 0 0 0.396875,-0.396875 0.39687499,0.39687499 0 0 0 -0.396875,-0.396875 0.39687499,0.39687499 0 0 0 -0.1322916,0.023771 V 1.3229166 Z M 1.6536458,2.38125 A 0.13229166,0.13229166 0 0 1 1.7859375,2.5135416 0.13229166,0.13229166 0 0 1 1.6536458,2.6458333 0.13229166,0.13229166 0 0 1 1.5213542,2.5135416 0.13229166,0.13229166 0 0 1 1.6536458,2.38125 Z" />
    <path
       id="path9"
       style="fill:#a5adcb;stroke-width:0.261548;fill-opacity:1"
       d="m 2.1828125,1.3229166 v 1.190625 0.396875 h 0.2645834 v -0.023771 a 0.39687499,0.39687499 0 0 0 0.1322916,0.023771 0.39687499,0.39687499 0 0 0 0.396875,-0.396875 0.39687499,0.39687499 0 0 0 -0.396875,-0.396875 0.39687499,0.39687499 0 0 0 -0.1322916,0.023771 V 1.3229166 Z M 2.5796875,2.38125 A 0.13229166,0.13229166 0 0 1 2.7119792,2.5135416 0.13229166,0.13229166 0 0 1 2.5796875,2.6458333 0.13229166,0.13229166 0 0 1 2.4473959,2.5135416 0.13229166,0.13229166 0 0 1 2.5796875,2.38125 Z" />
  </g>
</svg>
