<?xml version="1.0" encoding="UTF-8" standalone="no"?>
<!-- Created with Inkscape (http://www.inkscape.org/) -->

<svg
   width="16"
   height="16"
   viewBox="0 0 16 16"
   version="1.1"
   id="svg1"
   inkscape:export-filename="new_block.svg"
   inkscape:export-xdpi="96"
   inkscape:export-ydpi="96"
   sodipodi:docname="page.svg"
   xmlns:inkscape="http://www.inkscape.org/namespaces/inkscape"
   xmlns:sodipodi="http://sodipodi.sourceforge.net/DTD/sodipodi-0.dtd"
   xmlns="http://www.w3.org/2000/svg"
   xmlns:svg="http://www.w3.org/2000/svg">
  <sodipodi:namedview
     id="namedview1"
     pagecolor="#505050"
     bordercolor="#ffffff"
     borderopacity="1"
     inkscape:showpageshadow="0"
     inkscape:pageopacity="0"
     inkscape:pagecheckerboard="1"
     inkscape:deskcolor="#505050"
     inkscape:document-units="px"
     showgrid="true"
     showguides="true">
    <inkscape:grid
       id="grid1"
       units="px"
       originx="0"
       originy="0"
       spacingx="0.5"
       spacingy="0.5"
       empcolor="#0099e5"
       empopacity="0.30196078"
       color="#0099e5"
       opacity="0.14901961"
       empspacing="2"
       dotted="false"
       gridanglex="30"
       gridanglez="30"
       visible="true"
       snapvisiblegridlinesonly="true" />
    <sodipodi:guide
       position="2.5,13"
       orientation="0,-1"
       id="guide2"
       inkscape:locked="false" />
    <sodipodi:guide
       position="3,13"
       orientation="1,0"
       id="guide3"
       inkscape:locked="false" />
    <sodipodi:guide
       position="13,3"
       orientation="0,-1"
       id="guide4"
       inkscape:locked="false" />
    <sodipodi:guide
       position="13,3"
       orientation="1,0"
       id="guide5"
       inkscape:locked="false" />
  </sodipodi:namedview>
  <defs
     id="defs1" />
  <g
     inkscape:label="Layer 1"
     inkscape:groupmode="layer"
     id="layer1">
    <path
       id="path34"
       style="fill:#ffffff;fill-opacity:1;stroke:#6e738d;stroke-width:0"
       d="m 8,3 a 5,5 0 0 0 -5,5 5,5 0 0 0 5,5 5,5 0 0 0 3.527344,-1.472656 L 10.828125,10.828125 A 4,4 0 0 1 8,12 4,4 0 0 1 4,8 4,4 0 0 1 8,4 4,4 0 0 1 12,8 h 1 A 5,5 0 0 0 8,3 Z" />
    <path
       style="fill:#ffffff;fill-opacity:1;stroke:#6e738d;stroke-width:0"
       d="m 12.5,10 -2,-2 h 4 z"
       id="path35" />
  </g>
</svg>
