<?xml version="1.0" encoding="UTF-8" standalone="no"?>
<!-- Created with Inkscape (http://www.inkscape.org/) -->

<svg
   width="16"
   height="16"
   viewBox="0 0 16 16"
   version="1.1"
   id="svg1"
   inkscape:export-filename="search.svg"
   inkscape:export-xdpi="96"
   inkscape:export-ydpi="96"
   sodipodi:docname="search.svg"
   xmlns:inkscape="http://www.inkscape.org/namespaces/inkscape"
   xmlns:sodipodi="http://sodipodi.sourceforge.net/DTD/sodipodi-0.dtd"
   xmlns="http://www.w3.org/2000/svg"
   xmlns:svg="http://www.w3.org/2000/svg">
  <sodipodi:namedview
     id="namedview1"
     pagecolor="#505050"
     bordercolor="#ffffff"
     borderopacity="1"
     inkscape:showpageshadow="0"
     inkscape:pageopacity="0"
     inkscape:pagecheckerboard="1"
     inkscape:deskcolor="#505050"
     inkscape:document-units="px"
     showgrid="true">
    <inkscape:grid
       id="grid1"
       units="px"
       originx="0"
       originy="0"
       spacingx="0.5"
       spacingy="0.5"
       empcolor="#0099e5"
       empopacity="0.30196078"
       color="#0099e5"
       opacity="0.14901961"
       empspacing="2"
       dotted="false"
       gridanglex="30"
       gridanglez="30"
       visible="true" />
  </sodipodi:namedview>
  <defs
     id="defs1" />
  <g
     inkscape:label="Layer 1"
     inkscape:groupmode="layer"
     id="layer1">
    <path
       id="path1"
       style="fill:#ffffff;fill-opacity:1;stroke:#6e738d;stroke-width:0;stroke-opacity:1"
       d="m 3.2928932,3.2928937 a 4.5,4.5 0 0 0 0,6.3639606 4.5,4.5 0 0 0 6.3639611,0 4.5,4.5 0 0 0 0,-6.3639606 4.5,4.5 0 0 0 -6.3639611,0 z M 4,4 a 3.5,3.5 0 0 1 4.9497475,0 3.5,3.5 0 0 1 0,4.9497475 A 3.5,3.5 0 0 1 4,8.9497475 3.5,3.5 0 0 1 4,4 Z" />
    <path
       id="rect1"
       style="fill:#ffffff;fill-opacity:1;stroke:#6e738d;stroke-width:0;stroke-opacity:1"
       d="m 10.03442,10.741527 2.854667,2.854667 0.707107,-0.707107 -2.854667,-2.854667 a 5.5,5.5 0 0 1 -0.327314,0.379793 5.5,5.5 0 0 1 -0.379793,0.327314 z" />
  </g>
</svg>
