<?xml version="1.0" encoding="UTF-8" standalone="no"?>
<!-- Created with Inkscape (http://www.inkscape.org/) -->

<svg
   width="456.31415"
   height="92.60923"
   viewBox="0 0 456.31415 92.60923"
   version="1.1"
   id="svg1"
   inkscape:export-filename="logo.svg"
   inkscape:export-xdpi="96"
   inkscape:export-ydpi="96"
   xmlns:inkscape="http://www.inkscape.org/namespaces/inkscape"
   xmlns:sodipodi="http://sodipodi.sourceforge.net/DTD/sodipodi-0.dtd"
   xmlns="http://www.w3.org/2000/svg"
   xmlns:svg="http://www.w3.org/2000/svg">
  <sodipodi:namedview
     id="namedview1"
     pagecolor="#505050"
     bordercolor="#eeeeee"
     borderopacity="1"
     inkscape:showpageshadow="0"
     inkscape:pageopacity="0"
     inkscape:pagecheckerboard="0"
     inkscape:deskcolor="#505050"
     inkscape:document-units="px">
    <inkscape:page
       x="0"
       y="0"
       width="456.31415"
       height="92.60923"
       id="page2"
       margin="0"
       bleed="0" />
  </sodipodi:namedview>
  <defs
     id="defs1" />
  <g
     inkscape:label="Layer 1"
     inkscape:groupmode="layer"
     id="layer1"
     transform="translate(-8.4296875,-49.542969)">
    <path
       d="M 31.198934,51.776815 V 50.8722 h 6.892308 v 0.904615 z m 6.646159,0 V 50.8722 h 6.892308 v 0.904615 z m 229.661707,0 V 50.8722 h 6.89231 v 0.904615 z m 6.64615,0 V 50.8722 h 7.63077 v 0.904615 z m 7.38462,0 V 50.8722 h 6.89231 v 0.904615 z m -272.4924979,15 V 65.8722 H 15.93738 v 0.904615 z m 6.6461589,0 V 65.8722 h 6.892308 v 0.904615 z m 8.153852,-11.790769 0.824615,-0.406154 5.267692,10.861538 -0.836923,0.369231 z m 22.153862,0 0.824615,-0.406154 5.267692,10.861538 -0.836923,0.369231 z m 7.353851,11.790769 V 65.8722 h 6.892308 v 0.904615 z m 6.646159,0 V 65.8722 h 6.892308 v 0.904615 z m 22.892324,0 V 65.8722 h 6.892307 v 0.904615 z m 6.646159,0 V 65.8722 h 7.630769 v 0.904615 z m 7.384621,0 V 65.8722 h 7.630771 v 0.904615 z m 7.384621,0 V 65.8722 h 7.63077 v 0.904615 z m 7.38462,0 V 65.8722 h 6.89231 v 0.904615 z m 30.27694,0 V 65.8722 h 6.89231 v 0.904615 z m 6.64617,0 V 65.8722 h 7.63077 v 0.904615 z m 7.38461,0 V 65.8722 h 7.63077 v 0.904615 z m 7.38462,0 V 65.8722 h 7.63077 v 0.904615 z m 7.38463,0 V 65.8722 h 6.8923 v 0.904615 z m 30.27694,0 V 65.8722 h 6.89231 v 0.904615 z m 6.64617,0 V 65.8722 h 7.63077 v 0.904615 z m 7.38461,0 V 65.8722 h 7.63077 v 0.904615 z m 7.38461,0 V 65.8722 h 7.63077 v 0.904615 z m 7.38463,0 V 65.8722 h 6.89231 v 0.904615 z m 30.27694,0 V 65.8722 h 6.15385 v 0.904615 z m 7.4154,-11.790769 0.82462,-0.406154 5.26769,10.861538 -0.83692,0.369231 z m 22.15387,0 0.82462,-0.406154 5.26769,10.861538 -0.83692,0.369231 z m 29.50768,11.790769 V 65.8722 h 6.89231 v 0.904615 z m 6.64619,0 V 65.8722 h 7.63077 v 0.904615 z m 7.38461,0 V 65.8722 h 7.63077 v 0.904615 z m 7.38461,0 V 65.8722 h 7.63077 v 0.904615 z m 7.38465,0 V 65.8722 h 6.8923 v 0.904615 z m 30.27691,0 V 65.8722 h 6.89231 v 0.904615 z m 6.64618,0 V 65.8722 h 7.63077 v 0.904615 z m 7.38462,0 V 65.8722 h 7.63076 v 0.904615 z m 7.38461,0 V 65.8722 h 7.63077 v 0.904615 z m 7.38464,0 V 65.8722 h 6.89231 v 0.904615 z M 9.0758413,69.986046 9.9004567,69.579892 15.168149,80.44143 14.331226,80.810661 Z M 16.429693,81.776815 V 80.8722 H 23.322 v 0.904615 z m 6.646159,0 V 80.8722 h 6.892308 v 0.904615 z m 30.276944,0 V 80.8722 h 6.892308 v 0.904615 z m 6.646159,0 V 80.8722 h 6.892308 v 0.904615 z m 8.153852,-11.790769 0.824615,-0.406154 5.267692,10.861538 -0.836923,0.369231 z m 9.353851,5.24923 q 0,1.286154 0.289231,2.221539 0.295384,0.929231 0.88,1.698461 0.584615,0.769231 1.464615,1.544616 l -0.541538,0.566154 q -0.996923,-0.812308 -1.710769,-1.667693 -0.707693,-0.855384 -1.089231,-1.907692 -0.375385,-1.052308 -0.375385,-2.455385 0,-1.403076 0.375385,-2.455384 0.381538,-1.052308 1.089231,-1.907692 0.713846,-0.855385 1.710769,-1.667693 l 0.541538,0.566154 q -0.664615,0.590769 -1.163077,1.163077 -0.492307,0.566154 -0.818461,1.193846 -0.326154,0.627692 -0.492308,1.384616 -0.16,0.756923 -0.16,1.723076 z m 20.184631,-5.24923 0.824616,-0.406154 5.267695,10.861538 -0.83693,0.369231 z m 7.384621,0 0.82462,-0.406154 5.26769,10.861538 -0.83693,0.369231 z m 14.76924,0 0.82462,-0.406154 5.26769,10.861538 -0.83692,0.369231 z m 16.73847,5.24923 q 0,1.286154 0.28923,2.221539 0.29539,0.929231 0.88,1.698461 0.58462,0.769231 1.46462,1.544616 l -0.54154,0.566154 q -0.99692,-0.812308 -1.71077,-1.667693 -0.70769,-0.855384 -1.08923,-1.907692 -0.37538,-1.052308 -0.37538,-2.455385 0,-1.403076 0.37538,-2.455384 0.38154,-1.052308 1.08923,-1.907692 0.71385,-0.855385 1.71077,-1.667693 l 0.54154,0.566154 q -0.66462,0.590769 -1.16308,1.163077 -0.49231,0.566154 -0.81846,1.193846 -0.32615,0.627692 -0.49231,1.384616 -0.16,0.756923 -0.16,1.723076 z m 20.18463,-5.24923 0.82462,-0.406154 5.26769,10.861538 -0.83692,0.369231 z m 7.38462,0 0.82461,-0.406154 5.2677,10.861538 -0.83693,0.369231 z m 14.76925,0 0.82462,-0.406154 5.26769,10.861538 -0.83692,0.369231 z m 16.73846,5.24923 q 0,1.286154 0.28923,2.221539 0.29539,0.929231 0.88,1.698461 0.58462,0.769231 1.46462,1.544616 l -0.54154,0.566154 q -0.99692,-0.812308 -1.71077,-1.667693 -0.70769,-0.855384 -1.08923,-1.907692 -0.37539,-1.052308 -0.37539,-2.455385 0,-1.403076 0.37539,-2.455384 0.38154,-1.052308 1.08923,-1.907692 0.71385,-0.855385 1.71077,-1.667693 l 0.54154,0.566154 q -0.66462,0.590769 -1.16308,1.163077 -0.49231,0.566154 -0.81846,1.193846 -0.32616,0.627692 -0.49231,1.384616 -0.16,0.756923 -0.16,1.723076 z m 20.18464,-5.24923 0.82462,-0.406154 5.26769,10.861538 -0.83693,0.369231 z m 7.38461,0 0.82462,-0.406154 5.26769,10.861538 -0.83692,0.369231 z m 14.76926,0 0.82462,-0.406154 5.26769,10.861538 -0.83693,0.369231 z m 16.73846,5.24923 q 0,1.286154 0.28923,2.221539 0.29538,0.929231 0.88,1.698461 0.58461,0.769231 1.46461,1.544616 l -0.54154,0.566154 q -0.99692,-0.812308 -1.71077,-1.667693 -0.70769,-0.855384 -1.08923,-1.907692 -0.37538,-1.052308 -0.37538,-2.455385 0,-1.403076 0.37538,-2.455384 0.38154,-1.052308 1.08923,-1.907692 0.71385,-0.855385 1.71077,-1.667693 l 0.54154,0.566154 q -0.66461,0.590769 -1.16307,1.163077 -0.49231,0.566154 -0.81847,1.193846 -0.32615,0.627692 -0.4923,1.384616 -0.16,0.756923 -0.16,1.723076 z m 20.18464,-5.24923 0.82461,-0.406154 5.26769,10.861538 -0.83692,0.369231 z m 7.38461,0 0.82461,-0.406154 5.2677,10.861538 -0.83693,0.369231 z m 14.76925,0 0.82462,-0.406154 5.26769,10.861538 -0.83692,0.369231 z m 16.73846,5.24923 q 0,1.286154 0.28923,2.221539 0.29539,0.929231 0.88,1.698461 0.58462,0.769231 1.46462,1.544616 l -0.54154,0.566154 q -0.99692,-0.812308 -1.71077,-1.667693 -0.70769,-0.855384 -1.08923,-1.907692 -0.37539,-1.052308 -0.37539,-2.455385 0,-1.403076 0.37539,-2.455384 0.38154,-1.052308 1.08923,-1.907692 0.71385,-0.855385 1.71077,-1.667693 l 0.54154,0.566154 q -0.66462,0.590769 -1.16308,1.163077 -0.49231,0.566154 -0.81846,1.193846 -0.32615,0.627692 -0.49231,1.384616 -0.16,0.756923 -0.16,1.723076 z m 20.18464,-5.24923 0.82462,-0.406154 5.26769,10.861538 -0.83692,0.369231 z m 7.38461,0 0.82462,-0.406154 5.26769,10.861538 -0.83692,0.369231 z m 14.76926,0 0.82462,-0.406154 5.26769,10.861538 -0.83693,0.369231 z m 16.73846,5.24923 q 0,1.286154 0.28923,2.221539 0.29538,0.929231 0.88,1.698461 0.58461,0.769231 1.46461,1.544616 l -0.54154,0.566154 q -0.99692,-0.812308 -1.71076,-1.667693 -0.7077,-0.855384 -1.08924,-1.907692 -0.37538,-1.052308 -0.37538,-2.455385 0,-1.403076 0.37538,-2.455384 0.38154,-1.052308 1.08924,-1.907692 0.71384,-0.855385 1.71076,-1.667693 l 0.54154,0.566154 q -0.66461,0.590769 -1.16307,1.163077 -0.49231,0.566154 -0.81847,1.193846 -0.32615,0.627692 -0.4923,1.384616 -0.16,0.756923 -0.16,1.723076 z m 20.18464,-5.24923 0.82461,-0.406154 5.26769,10.861538 -0.83692,0.369231 z m 7.38461,0 0.82461,-0.406154 5.2677,10.861538 -0.83693,0.369231 z m 14.76926,0 0.82461,-0.406154 5.26769,10.861538 -0.83692,0.369231 z M 23.814313,96.776815 V 95.8722 h 6.153847 v 0.904615 z m 7.41539,-11.790769 0.824616,-0.406154 5.267692,10.861538 -0.836923,0.369231 z m 22.153862,0 0.824616,-0.406154 5.267692,10.861538 -0.836923,0.369231 z m 29.538483,0 0.824615,-0.406154 5.267693,10.861538 -0.836923,0.369231 z m 22.153862,0 0.82462,-0.406154 5.26769,10.861538 -0.83693,0.369231 z m 7.38462,0 0.82462,-0.406154 5.26769,10.861538 -0.83692,0.369231 z m 14.76924,0 0.82462,-0.406154 5.26769,10.861538 -0.83692,0.369231 z m 14.76924,0 0.82462,-0.406154 5.26769,10.861538 -0.83692,0.369231 z m 22.15386,0 0.82461,-0.406154 5.2677,10.861538 -0.83693,0.369231 z m 7.38463,0 0.82461,-0.406154 5.26769,10.861538 -0.83692,0.369231 z m 14.76924,0 0.82461,-0.406154 5.2677,10.861538 -0.83693,0.369231 z m 14.76924,0 0.82461,-0.406154 5.2677,10.861538 -0.83693,0.369231 z m 22.15385,0 0.82462,-0.406154 5.26769,10.861538 -0.83692,0.369231 z m 7.38463,0 0.82462,-0.406154 5.26769,10.861538 -0.83692,0.369231 z m 14.76924,0 0.82462,-0.406154 5.26769,10.861538 -0.83692,0.369231 z m 14.76924,0 0.82462,-0.406154 5.26769,10.861538 -0.83692,0.369231 z m 22.15386,0 0.82461,-0.406154 5.2677,10.861538 -0.83693,0.369231 z m 7.38464,0 0.82462,-0.406154 5.26769,10.861538 -0.83692,0.369231 z m 14.76923,0 0.82461,-0.406154 5.2677,10.861538 -0.83693,0.369231 z m 14.76922,0 0.82462,-0.406154 5.26769,10.861538 -0.83692,0.369231 z m 22.15387,0 0.82462,-0.406154 5.26769,10.861538 -0.83692,0.369231 z m 7.38465,0 0.82461,-0.406154 5.26769,10.861538 -0.83692,0.369231 z m 14.76922,0 0.82462,-0.406154 5.26769,10.861538 -0.83692,0.369231 z m 14.76923,0 0.82461,-0.406154 5.2677,10.861538 -0.83693,0.369231 z m 22.15387,0 0.82461,-0.406154 5.2677,10.861538 -0.83693,0.369231 z m 7.38464,0 0.82462,-0.406154 5.26769,10.861538 -0.83692,0.369231 z m 14.76923,0 0.82461,-0.406154 5.2677,10.861538 -0.83693,0.369231 z m -398.769517,15 0.824615,-0.406154 5.267692,10.861538 -0.836923,0.36923 z m 7.353851,11.790764 v -0.90461 h 6.892308 v 0.90461 z m 6.646159,0 v -0.90461 h 7.630769 v 0.90461 z m 7.384621,0 v -0.90461 h 7.630769 v 0.90461 z m 7.384621,0 v -0.90461 h 6.892307 v 0.90461 z m 12.276928,-6.54153 q 0,-0.96616 -0.166154,-1.72308 -0.16,-0.75692 -0.486154,-1.38462 -0.326154,-0.62769 -0.824615,-1.19384 -0.492308,-0.57231 -1.156923,-1.163079 l 0.541538,-0.566154 q 0.996923,0.812303 1.704616,1.667693 0.713846,0.85538 1.08923,1.90769 0.381539,1.05231 0.381539,2.45539 0,1.40307 -0.381539,2.45538 -0.375384,1.05231 -1.08923,1.90769 -0.707693,0.85539 -1.704616,1.6677 l -0.541538,-0.56616 q 0.88,-0.77538 1.464615,-1.54461 0.584616,-0.76923 0.873846,-1.69847 0.295385,-0.93538 0.295385,-2.22153 z m 25.415406,-5.249234 0.824615,-0.406154 5.267692,10.861538 -0.836923,0.36923 z m 7.353851,11.790764 v -0.90461 h 6.89231 v 0.90461 z m 6.64616,0 v -0.90461 h 7.63077 v 0.90461 z m 7.38462,0 v -0.90461 h 7.63077 v 0.90461 z m 7.38462,0 v -0.90461 h 7.63077 v 0.90461 z m 7.38462,0 v -0.90461 h 6.89231 v 0.90461 z m 12.27693,-6.54153 q 0,-0.96616 -0.16615,-1.72308 -0.16,-0.75692 -0.48616,-1.38462 -0.32615,-0.62769 -0.82461,-1.19384 -0.49231,-0.57231 -1.15693,-1.163079 l 0.54154,-0.566154 q 0.99692,0.812303 1.70462,1.667693 0.71384,0.85538 1.08923,1.90769 0.38154,1.05231 0.38154,2.45539 0,1.40307 -0.38154,2.45538 -0.37539,1.05231 -1.08923,1.90769 -0.7077,0.85539 -1.70462,1.6677 l -0.54154,-0.56616 q 0.88,-0.77538 1.46462,-1.54461 0.58461,-0.76923 0.87384,-1.69847 0.29539,-0.93538 0.29539,-2.22153 z m 10.64617,-5.249234 0.82462,-0.406154 5.26769,10.861538 -0.83692,0.36923 z m 7.35385,11.790764 v -0.90461 h 6.8923 v 0.90461 z m 6.64615,0 v -0.90461 h 7.63077 v 0.90461 z m 7.38463,0 v -0.90461 h 6.8923 v 0.90461 z m 22.92308,-11.790764 0.82462,-0.406154 5.26769,10.861538 -0.83693,0.36923 z m 14.76926,0 0.82461,-0.406154 5.26769,10.861538 -0.83692,0.36923 z m 7.35384,11.790764 v -0.90461 h 6.89231 v 0.90461 z m 6.64615,0 v -0.90461 h 7.63077 v 0.90461 z m 7.38463,0 v -0.90461 h 7.63077 v 0.90461 z m 7.38463,0 v -0.90461 h 7.63077 v 0.90461 z m 7.38461,0 v -0.90461 h 6.89231 v 0.90461 z m 12.27692,-6.54153 q 0,-0.96616 -0.16615,-1.72308 -0.16,-0.75692 -0.48616,-1.38462 -0.32615,-0.62769 -0.82461,-1.19384 -0.49231,-0.57231 -1.15692,-1.163079 l 0.54153,-0.566154 q 0.99693,0.812303 1.70462,1.667693 0.71385,0.85538 1.08923,1.90769 0.38154,1.05231 0.38154,2.45539 0,1.40307 -0.38154,2.45538 -0.37538,1.05231 -1.08923,1.90769 -0.70769,0.85539 -1.70462,1.6677 l -0.54153,-0.56616 q 0.88,-0.77538 1.46461,-1.54461 0.58462,-0.76923 0.87385,-1.69847 0.29538,-0.93538 0.29538,-2.22153 z m 10.64618,-5.249234 0.82462,-0.406154 5.26769,10.861538 -0.83692,0.36923 z m 7.35385,11.790764 v -0.90461 h 6.8923 v 0.90461 z m 6.64615,0 v -0.90461 h 7.63077 v 0.90461 z m 7.38464,0 v -0.90461 h 7.63077 v 0.90461 z m 7.38461,0 v -0.90461 h 7.63077 v 0.90461 z m 7.38462,0 v -0.90461 h 6.8923 v 0.90461 z m 12.27692,-6.54153 q 0,-0.96616 -0.16616,-1.72308 -0.16,-0.75692 -0.48615,-1.38462 -0.32615,-0.62769 -0.82462,-1.19384 -0.4923,-0.57231 -1.15692,-1.163079 l 0.54154,-0.566154 q 0.99692,0.812303 1.70462,1.667693 0.71384,0.85538 1.08923,1.90769 0.38153,1.05231 0.38153,2.45539 0,1.40307 -0.38153,2.45538 -0.37539,1.05231 -1.08923,1.90769 -0.7077,0.85539 -1.70462,1.6677 l -0.54154,-0.56616 q 0.88,-0.77538 1.46462,-1.54461 0.58461,-0.76923 0.87384,-1.69847 0.29539,-0.93538 0.29539,-2.22153 z m 10.64618,-5.249234 0.82461,-0.406154 5.2677,10.861538 -0.83693,0.36923 z m 7.35384,11.790764 v -0.90461 h 6.89231 v 0.90461 z m 6.64615,0 v -0.90461 h 7.63077 v 0.90461 z m 7.38465,0 v -0.90461 h 7.63077 v 0.90461 z m 7.38461,0 v -0.90461 h 7.63077 v 0.90461 z m 7.38461,0 v -0.90461 h 6.89231 v 0.90461 z m 12.27692,-6.54153 q 0,-0.96616 -0.16615,-1.72308 -0.16,-0.75692 -0.48615,-1.38462 -0.32616,-0.62769 -0.82462,-1.19384 -0.49231,-0.57231 -1.15692,-1.163079 l 0.54154,-0.566154 q 0.99692,0.812303 1.70461,1.667693 0.71385,0.85538 1.08923,1.90769 0.38154,1.05231 0.38154,2.45539 0,1.40307 -0.38154,2.45538 -0.37538,1.05231 -1.08923,1.90769 -0.70769,0.85539 -1.70461,1.6677 l -0.54154,-0.56616 q 0.88,-0.77538 1.46461,-1.54461 0.58462,-0.76923 0.87385,-1.69847 0.29538,-0.93538 0.29538,-2.22153 z m 10.64618,-5.249234 0.82462,-0.406154 5.26769,10.861538 -0.83692,0.36923 z m 7.35385,11.790764 v -0.90461 h 6.8923 v 0.90461 z m 6.64615,0 v -0.90461 h 7.63077 v 0.90461 z m 7.38464,0 v -0.90461 h 7.63077 v 0.90461 z m 7.38461,0 v -0.90461 h 7.63077 v 0.90461 z m 7.38462,0 v -0.90461 h 6.89231 v 0.90461 z m 12.27692,-6.54153 q 0,-0.96616 -0.16616,-1.72308 -0.16,-0.75692 -0.48615,-1.38462 -0.32615,-0.62769 -0.82461,-1.19384 -0.49231,-0.57231 -1.15693,-1.163079 l 0.54154,-0.566154 q 0.99692,0.812303 1.70462,1.667693 0.71384,0.85538 1.08923,1.90769 0.38154,1.05231 0.38154,2.45539 0,1.40307 -0.38154,2.45538 -0.37539,1.05231 -1.08923,1.90769 -0.7077,0.85539 -1.70462,1.6677 l -0.54154,-0.56616 q 0.88,-0.77538 1.46462,-1.54461 0.58461,-0.76923 0.87384,-1.69847 0.29539,-0.93538 0.29539,-2.22153 z m 12.61541,0 q 0,1.28615 0.28923,2.22153 0.29538,0.92924 0.88,1.69847 0.58462,0.76923 1.46462,1.54461 l -0.54154,0.56616 q -0.99693,-0.81231 -1.71077,-1.6677 -0.70769,-0.85538 -1.08923,-1.90769 -0.37539,-1.05231 -0.37539,-2.45538 0,-1.40308 0.37539,-2.45539 0.38154,-1.05231 1.08923,-1.90769 0.71384,-0.85539 1.71077,-1.667693 l 0.54154,0.566154 q -0.66462,0.590769 -1.16308,1.163079 -0.49231,0.56615 -0.81846,1.19384 -0.32616,0.6277 -0.49231,1.38462 -0.16,0.75692 -0.16,1.72308 z m 5.38461,6.54153 v -0.90461 h 6.15385 v 0.90461 z m 11.53846,-6.54153 q 0,-0.96616 -0.16615,-1.72308 -0.16,-0.75692 -0.48616,-1.38462 -0.32615,-0.62769 -0.82461,-1.19384 -0.49231,-0.57231 -1.15692,-1.163079 l 0.54153,-0.566154 q 0.99693,0.812303 1.70462,1.667693 0.71385,0.85538 1.08923,1.90769 0.38154,1.05231 0.38154,2.45539 0,1.40307 -0.38154,2.45538 -0.37538,1.05231 -1.08923,1.90769 -0.70769,0.85539 -1.70462,1.6677 l -0.54153,-0.56616 q 0.88,-0.77538 1.46461,-1.54461 0.58462,-0.76923 0.87385,-1.69847 0.29538,-0.93538 0.29538,-2.22153 z M 9.0450721,126.77681 V 125.8722 H 15.93738 v 0.90461 z m 6.6461589,0 v -0.90461 h 6.892308 v 0.90461 z m 22.892324,0 v -0.90461 h 6.892307 v 0.90461 z m 6.646159,0 v -0.90461 h 6.892308 v 0.90461 z m 22.892323,0 v -0.90461 h 6.892308 v 0.90461 z m 6.64616,0 v -0.90461 h 6.892307 v 0.90461 z m 22.892323,0 v -0.90461 h 6.89231 v 0.90461 z m 6.64616,0 v -0.90461 h 6.89231 v 0.90461 z m 22.89232,0 v -0.90461 h 6.89231 v 0.90461 z m 6.64616,0 v -0.90461 h 6.89231 v 0.90461 z m 37.66157,0 v -0.90461 h 6.15384 v 0.90461 z m 7.41539,-11.79076 0.82462,-0.40616 5.26769,10.86154 -0.83692,0.36923 z m 22.15386,0 0.82461,-0.40616 5.2677,10.86154 -0.83693,0.36923 z m -192.0001387,15 0.8246154,-0.40616 5.2676923,10.86154 -0.836923,0.36923 z m 7.3538517,11.79076 v -0.90461 h 6.153846 v 0.90461 z m 7.41539,-11.79076 0.824615,-0.40616 5.267692,10.86154 -0.836923,0.36923 z m 14.769241,0 0.824615,-0.40616 5.267693,10.86154 -0.836923,0.36923 z m 15.286159,-1.1077 v 0.88616 h -2.252308 l -2.72,9.77846 h -1.16923 l -2.049231,-5.61846 0.898461,-0.3077 1.704616,4.82462 2.609231,-9.56308 z m -0.516918,1.1077 0.824616,-0.40616 5.267692,10.86154 -0.836923,0.36923 z m 14.769242,0 0.824615,-0.40616 5.267692,10.86154 -0.836923,0.36923 z m 15.286159,-1.1077 v 0.88616 h -2.252308 l -2.72,9.77846 h -1.169231 l -2.04923,-5.61846 0.898461,-0.3077 1.704615,4.82462 2.609231,-9.56308 z m -0.516918,1.1077 0.824615,-0.40616 5.267693,10.86154 -0.836923,0.36923 z m 14.769241,0 0.824616,-0.40616 5.267695,10.86154 -0.83693,0.36923 z m 7.353851,11.79076 v -0.90461 h 6.15385 v 0.90461 z m 7.41539,-11.79076 0.82462,-0.40616 5.26769,10.86154 -0.83692,0.36923 z m 14.76924,0 0.82462,-0.40616 5.26769,10.86154 -0.83692,0.36923 z m 15.28616,-1.1077 v 0.88616 h -2.25231 l -2.72,9.77846 h -1.16923 l -2.04923,-5.61846 0.89846,-0.3077 1.70462,4.82462 2.60923,-9.56308 z m -0.51692,1.1077 0.82462,-0.40616 5.26769,10.86154 -0.83692,0.36923 z m 22.15386,0 0.82461,-0.40616 5.2677,10.86154 -0.83693,0.36923 z m 7.35386,11.79076 v -0.90461 h 6.8923 v 0.90461 z m 6.64616,0 v -0.90461 h 7.63077 v 0.90461 z m 7.38462,0 v -0.90461 h 7.63077 v 0.90461 z m 7.38461,0 v -0.90461 h 7.63077 v 0.90461 z m 7.38463,0 v -0.90461 h 6.89231 v 0.90461 z m 12.27693,-6.54153 q 0,-0.96616 -0.16615,-1.72308 -0.16,-0.75692 -0.48615,-1.38462 -0.32616,-0.62769 -0.82462,-1.19384 -0.49231,-0.57231 -1.15692,-1.16308 l 0.54154,-0.56615 q 0.99692,0.8123 1.70461,1.66769 0.71385,0.85538 1.08923,1.90769 0.38154,1.05231 0.38154,2.45539 0,1.40307 -0.38154,2.45538 -0.37538,1.05231 -1.08923,1.90769 -0.70769,0.85539 -1.70461,1.6677 l -0.54154,-0.56616 q 0.88,-0.77538 1.46461,-1.54461 0.58462,-0.76923 0.87385,-1.69847 0.29538,-0.93538 0.29538,-2.22153 z m 15.33538,2.14769 h -3.35384 l -0.67693,2.16 h -1.0523 l 2.75692,-8.47385 h 1.36615 l 2.75693,8.47385 h -1.12 z m -3.07692,-0.88616 h 2.8 l -1.39077,-4.52923 z m 18.89233,2.72 q -0.3323,0.22154 -0.80615,0.34462 -0.47385,0.12308 -0.92923,0.12308 -1.04615,0 -1.61231,-0.5477 -0.56615,-0.54769 -0.56615,-1.40923 v -3.86461 h -1.48923 v -0.8 h 1.48923 v -1.47077 l 1.03384,-0.12308 v 1.59385 h 2.24 l -0.12307,0.8 h -2.11693 v 3.85231 q 0,0.54153 0.28308,0.82461 0.28923,0.28308 0.95385,0.28308 0.36307,0 0.67077,-0.0862 0.30769,-0.0862 0.5723,-0.22153 z m 2.30154,0.32616 v -0.79385 h 1.00923 v -4.89231 h -1.00923 v -0.79384 h 1.79692 l 0.19077,1.53231 q 0.37539,-0.8 0.91077,-1.23693 0.53539,-0.43692 1.41539,-0.43692 0.27077,0 0.48,0.0431 0.21538,0.0369 0.43692,0.0985 l -0.14769,2.19077 h -0.84923 v -1.37846 q -0.0246,0 -0.0554,0 -1.48923,0 -2.13538,2.12923 v 2.74461 h 1.31692 v 0.79385 z m 8.13538,-2.87385 q 0.0431,1.12616 0.59077,1.64308 0.55385,0.51077 1.30462,0.51077 0.49846,0 0.89846,-0.14769 0.4,-0.1477 0.83077,-0.43693 l 0.48615,0.68308 q -0.44923,0.35692 -1.03384,0.56 -0.58462,0.20308 -1.19385,0.20308 -0.94769,0 -1.61231,-0.42462 -0.65846,-0.42461 -1.00923,-1.18154 -0.34461,-0.76307 -0.34461,-1.76615 0,-0.98462 0.34461,-1.74769 0.35077,-0.76308 0.98462,-1.2 0.64,-0.43693 1.50153,-0.43693 1.22462,0 1.92616,0.84923 0.70769,0.84924 0.70769,2.32616 0,0.16615 -0.0123,0.31384 -0.006,0.1477 -0.0123,0.25231 z m 1.76,-2.89231 q -0.72,0 -1.20615,0.51077 -0.48616,0.51077 -0.54769,1.58154 h 3.37846 q -0.0185,-1.04 -0.45539,-1.56307 -0.43692,-0.52924 -1.16923,-0.52924 z m 5.62463,2.89231 q 0.0431,1.12616 0.59077,1.64308 0.55385,0.51077 1.30462,0.51077 0.49846,0 0.89846,-0.14769 0.4,-0.1477 0.83077,-0.43693 l 0.48615,0.68308 q -0.44923,0.35692 -1.03385,0.56 -0.58461,0.20308 -1.19384,0.20308 -0.94769,0 -1.61231,-0.42462 -0.65846,-0.42461 -1.00923,-1.18154 -0.34462,-0.76307 -0.34462,-1.76615 0,-0.98462 0.34462,-1.74769 0.35077,-0.76308 0.98461,-1.2 0.64,-0.43693 1.50154,-0.43693 1.22462,0 1.92616,0.84923 0.70769,0.84924 0.70769,2.32616 0,0.16615 -0.0123,0.31384 -0.006,0.1477 -0.0123,0.25231 z m 1.76,-2.89231 q -0.72,0 -1.20615,0.51077 -0.48616,0.51077 -0.5477,1.58154 h 3.37847 q -0.0185,-1.04 -0.45539,-1.56307 -0.43692,-0.52924 -1.16923,-0.52924 z m 4.80001,2.85539 v -0.89846 h 4.93539 v 0.89846 z m 8.43077,-2.72615 q 0.35077,-0.4677 0.81846,-0.72 0.47385,-0.25847 1.02769,-0.25847 0.8677,0 1.40308,0.41847 0.53539,0.41846 0.78154,1.18153 0.24615,0.75693 0.24615,1.77231 0,0.97846 -0.29538,1.74769 -0.28923,0.76308 -0.86154,1.2 -0.57231,0.43693 -1.40923,0.43693 -1.12615,0 -1.76615,-0.81231 l -0.0738,0.67077 H 275.513 v -9.08923 l 1.03385,-0.12923 z m 1.46462,4.94153 q 0.8123,0 1.24923,-0.62769 0.43692,-0.62769 0.43692,-1.92615 0,-2.53539 -1.52615,-2.53539 -0.54154,0 -0.95385,0.32616 -0.41231,0.32 -0.67077,0.71384 v 3.21231 q 0.25231,0.38769 0.63385,0.61539 0.38769,0.22153 0.83077,0.22153 z m 9.52615,-0.72 q 0,0.39385 0.12923,0.57231 0.12923,0.17846 0.4,0.25846 l -0.25231,0.72616 q -0.41846,-0.0554 -0.73231,-0.26462 -0.31384,-0.21538 -0.45538,-0.64615 -0.35077,0.44923 -0.88,0.68307 -0.52308,0.2277 -1.15077,0.2277 -0.97231,0 -1.53231,-0.5477 -0.56,-0.54769 -0.56,-1.4523 0,-1.00308 0.78154,-1.53846 0.78154,-0.53539 2.25846,-0.53539 h 0.95385 v -0.54154 q 0,-0.70154 -0.41231,-0.99077 -0.40615,-0.29538 -1.13231,-0.29538 -0.32,0 -0.75077,0.08 -0.43077,0.0738 -0.93538,0.25231 l -0.27077,-0.78154 q 0.59077,-0.22154 1.11385,-0.31385 0.52923,-0.0923 1.00307,-0.0923 1.20616,0 1.81539,0.56616 0.60923,0.56615 0.60923,1.52615 z m -2.67693,0.76923 q 0.48,0 0.91077,-0.24 0.43693,-0.24615 0.72616,-0.67692 v -1.66769 h -0.93539 q -1.07077,0 -1.51384,0.36923 -0.43693,0.36923 -0.43693,0.99077 0,1.22461 1.24923,1.22461 z m 7.62465,-0.0677 q 0.75077,0 1.18154,-0.27692 0.43077,-0.27692 0.43077,-0.75077 0,-0.28923 -0.11077,-0.50462 -0.10462,-0.21538 -0.43693,-0.38769 -0.3323,-0.17846 -1.02153,-0.35077 -0.67077,-0.16615 -1.16924,-0.38154 -0.4923,-0.22153 -0.76923,-0.5723 -0.27077,-0.35077 -0.27077,-0.91077 0,-0.81846 0.68308,-1.29231 0.68308,-0.47385 1.77846,-0.47385 0.78154,0 1.36,0.20923 0.58462,0.20924 0.99077,0.50462 l -0.45538,0.70154 q -0.36308,-0.25231 -0.81231,-0.41231 -0.44308,-0.16615 -1.07077,-0.16615 -0.76308,0 -1.08308,0.24 -0.32,0.23384 -0.32,0.60923 0,0.28923 0.15385,0.48 0.16,0.18461 0.53538,0.33231 0.37539,0.14769 1.03385,0.32615 0.63385,0.17231 1.10769,0.40615 0.47385,0.23385 0.73231,0.61539 0.26462,0.37538 0.26462,0.97846 0,0.68923 -0.39385,1.12 -0.39385,0.42461 -1.02154,0.62154 -0.62154,0.19077 -1.31692,0.19077 -0.88,0 -1.50154,-0.25231 -0.61538,-0.25846 -1.03385,-0.62154 l 0.59077,-0.68308 q 0.38154,0.31385 0.87385,0.51077 0.49846,0.19077 1.07077,0.19077 z m 5.99384,-2.16 q 0.0431,1.12616 0.59077,1.64308 0.55385,0.51077 1.30462,0.51077 0.49846,0 0.89846,-0.14769 0.4,-0.1477 0.83077,-0.43693 l 0.48615,0.68308 q -0.44923,0.35692 -1.03385,0.56 -0.58461,0.20308 -1.19384,0.20308 -0.94769,0 -1.61231,-0.42462 -0.65846,-0.42461 -1.00923,-1.18154 -0.34462,-0.76307 -0.34462,-1.76615 0,-0.98462 0.34462,-1.74769 0.35077,-0.76308 0.98462,-1.2 0.64,-0.43693 1.50153,-0.43693 1.22462,0 1.92616,0.84923 0.70769,0.84924 0.70769,2.32616 0,0.16615 -0.0123,0.31384 -0.006,0.1477 -0.0123,0.25231 z m 1.76,-2.89231 q -0.72,0 -1.20615,0.51077 -0.48616,0.51077 -0.54769,1.58154 h 3.37846 q -0.0185,-1.04 -0.45539,-1.56307 -0.43692,-0.52924 -1.16923,-0.52924 z m 8.68923,-3.4523 1.03385,0.12923 v 9.08923 h -0.90462 l -0.0985,-0.85539 q -0.36308,0.51693 -0.83692,0.75693 -0.4677,0.24 -1.00308,0.24 -0.84308,0 -1.39077,-0.42462 -0.54769,-0.42461 -0.81231,-1.18154 -0.26461,-0.76307 -0.26461,-1.76615 0,-0.97231 0.30154,-1.73539 0.30153,-0.76923 0.86769,-1.20615 0.57231,-0.44308 1.37231,-0.44308 1.07692,0 1.73538,0.76308 z m -1.46462,3.43384 q -0.8123,0 -1.24923,0.63385 -0.43692,0.63385 -0.43692,1.92 0,2.53538 1.55692,2.53538 0.5477,0 0.94154,-0.30769 0.39385,-0.31384 0.65231,-0.71384 v -3.23693 q -0.26462,-0.39384 -0.64,-0.60923 -0.37538,-0.22154 -0.82462,-0.22154 z m 17.50154,5.45846 q -0.33231,0.22154 -0.80616,0.34462 -0.47384,0.12308 -0.92923,0.12308 -1.04615,0 -1.6123,-0.5477 -0.56616,-0.54769 -0.56616,-1.40923 v -3.86461 h -1.48923 v -0.8 h 1.48923 v -1.47077 l 1.03385,-0.12308 v 1.59385 h 2.24 l -0.12308,0.8 h -2.11692 v 3.85231 q 0,0.54153 0.28308,0.82461 0.28923,0.28308 0.95384,0.28308 0.36308,0 0.67077,-0.0862 0.30769,-0.0862 0.57231,-0.22153 z m 4.70772,-6.28923 q 1.37231,0 2.07385,0.91693 0.70153,0.91692 0.70153,2.45538 0,0.99077 -0.32,1.75385 -0.32,0.76307 -0.94153,1.2 -0.62154,0.43077 -1.52616,0.43077 -1.37231,0 -2.08,-0.92308 -0.70769,-0.92308 -0.70769,-2.44923 0,-0.99692 0.32,-1.76 0.32,-0.76923 0.94154,-1.19385 0.62769,-0.43077 1.53846,-0.43077 z m 0,0.84308 q -0.83692,0 -1.26769,0.62154 -0.42462,0.62154 -0.42462,1.92 0,1.28615 0.41846,1.90769 0.42462,0.61539 1.26154,0.61539 0.83692,0 1.25539,-0.62154 0.42461,-0.62154 0.42461,-1.91385 0,-1.29231 -0.41846,-1.90769 -0.41846,-0.62154 -1.24923,-0.62154 z m 8.79384,-3.44615 1.03385,0.12923 v 9.08923 h -0.90462 l -0.0985,-0.85539 q -0.36307,0.51693 -0.83692,0.75693 -0.46769,0.24 -1.00308,0.24 -0.84307,0 -1.39077,-0.42462 -0.54769,-0.42461 -0.8123,-1.18154 -0.26462,-0.76307 -0.26462,-1.76615 0,-0.97231 0.30154,-1.73539 0.30154,-0.76923 0.86769,-1.20615 0.57231,-0.44308 1.37231,-0.44308 1.07692,0 1.73538,0.76308 z m -1.46461,3.43384 q -0.81231,0 -1.24923,0.63385 -0.43693,0.63385 -0.43693,1.92 0,2.53538 1.55693,2.53538 0.54769,0 0.94154,-0.30769 0.39384,-0.31384 0.6523,-0.71384 v -3.23693 q -0.26461,-0.39384 -0.64,-0.60923 -0.37538,-0.22154 -0.82461,-0.22154 z m 7.44,-0.83077 q 1.3723,0 2.07384,0.91693 0.70154,0.91692 0.70154,2.45538 0,0.99077 -0.32,1.75385 -0.32,0.76307 -0.94154,1.2 -0.62154,0.43077 -1.52615,0.43077 -1.37231,0 -2.08,-0.92308 -0.70769,-0.92308 -0.70769,-2.44923 0,-0.99692 0.32,-1.76 0.32,-0.76923 0.94153,-1.19385 0.6277,-0.43077 1.53847,-0.43077 z m 0,0.84308 q -0.83693,0 -1.2677,0.62154 -0.42461,0.62154 -0.42461,1.92 0,1.28615 0.41846,1.90769 0.42461,0.61539 1.26154,0.61539 0.83692,0 1.25538,-0.62154 0.42462,-0.62154 0.42462,-1.91385 0,-1.29231 -0.41846,-1.90769 -0.41847,-0.62154 -1.24923,-0.62154 z m 16.94156,4.35692 q 0,0.39385 0.12923,0.57231 0.12923,0.17846 0.4,0.25846 l -0.25231,0.72616 q -0.41846,-0.0554 -0.73231,-0.26462 -0.31384,-0.21538 -0.45538,-0.64615 -0.35077,0.44923 -0.88,0.68307 -0.52308,0.2277 -1.15077,0.2277 -0.97231,0 -1.53231,-0.5477 -0.56,-0.54769 -0.56,-1.4523 0,-1.00308 0.78154,-1.53846 0.78154,-0.53539 2.25846,-0.53539 h 0.95385 v -0.54154 q 0,-0.70154 -0.41231,-0.99077 -0.40615,-0.29538 -1.13231,-0.29538 -0.32,0 -0.75077,0.08 -0.43076,0.0738 -0.93538,0.25231 l -0.27077,-0.78154 q 0.59077,-0.22154 1.11385,-0.31385 0.52923,-0.0923 1.00307,-0.0923 1.20616,0 1.81539,0.56616 0.60923,0.56615 0.60923,1.52615 z m -2.67692,0.76923 q 0.48,0 0.91077,-0.24 0.43692,-0.24615 0.72615,-0.67692 v -1.66769 h -0.93539 q -1.07076,0 -1.51384,0.36923 -0.43692,0.36923 -0.43692,0.99077 0,1.22461 1.24923,1.22461 z m 8.31999,-5.96923 q 0.86154,0 1.37231,0.41847 0.51692,0.41846 0.74462,1.18153 0.22769,0.75693 0.22769,1.77231 0,0.97846 -0.27692,1.74769 -0.27077,0.76308 -0.82462,1.2 -0.55385,0.43693 -1.39692,0.43693 -1.06462,0 -1.71077,-0.75077 v 3.08923 l -1.03385,0.12923 v -9.08923 h 0.88 l 0.0862,0.90461 q 0.35692,-0.49846 0.84923,-0.76923 0.4923,-0.27077 1.08307,-0.27077 z m -0.24615,0.83077 q -0.53538,0 -0.94769,0.32616 -0.41231,0.32 -0.67077,0.71384 v 3.21231 q 0.25231,0.37539 0.63384,0.59692 0.3877,0.21539 0.84924,0.21539 0.80615,0 1.2123,-0.61539 0.40616,-0.61538 0.40616,-1.91384 0,-2.53539 -1.48308,-2.53539 z m 7.63077,-0.83077 q 0.86154,0 1.3723,0.41847 0.51693,0.41846 0.74462,1.18153 0.22769,0.75693 0.22769,1.77231 0,0.97846 -0.27692,1.74769 -0.27077,0.76308 -0.82462,1.2 -0.55384,0.43693 -1.39692,0.43693 -1.06461,0 -1.71077,-0.75077 v 3.08923 l -1.03384,0.12923 v -9.08923 h 0.88 l 0.0862,0.90461 q 0.35692,-0.49846 0.84923,-0.76923 0.49231,-0.27077 1.08308,-0.27077 z m -0.24616,0.83077 q -0.53538,0 -0.94769,0.32616 -0.41231,0.32 -0.67077,0.71384 v 3.21231 q 0.25231,0.37539 0.63385,0.59692 0.38769,0.21539 0.84923,0.21539 0.80615,0 1.21231,-0.61539 0.40615,-0.61538 0.40615,-1.91384 0,-2.53539 -1.48308,-2.53539 z"
       id="text1"
       style="font-family:'Fira Code';-inkscape-font-specification:'Fira Code';white-space:pre;fill:#ffffff;stroke-width:0.5"
       aria-label="   __                              ___&#10;__\  \__  _____   _____   _____   _\  \   _____   _____&#10;\__   __\(  \\ \ (  \\ \ (  \\ \ (  \\ \ (  \\ \ (  \\ \&#10;  _\  \   \  \\ \ \  \\ \ \  \\ \ \  \\ \ \  \\ \ \  \\ \&#10;  \____)   \_____) \___  \ \_____) \_____) \_____) \_____) (_)&#10;__  __  __  __  __    _\  \&#10;\_\ \√\ \√\ \_\ \√\  \_____) A tree-based todo app&#10;&#10;" />
  </g>
</svg>
