<?xml version="1.0" encoding="UTF-8" standalone="no"?>
<!-- Created with Inkscape (http://www.inkscape.org/) -->

<svg
   width="16"
   height="16"
   viewBox="0 0 16 16"
   version="1.1"
   id="svg1"
   inkscape:export-filename="fixed_page.svg"
   inkscape:export-xdpi="96"
   inkscape:export-ydpi="96"
   sodipodi:docname="fixed_page.svg"
   xmlns:inkscape="http://www.inkscape.org/namespaces/inkscape"
   xmlns:sodipodi="http://sodipodi.sourceforge.net/DTD/sodipodi-0.dtd"
   xmlns="http://www.w3.org/2000/svg"
   xmlns:svg="http://www.w3.org/2000/svg">
  <sodipodi:namedview
     id="namedview1"
     pagecolor="#505050"
     bordercolor="#ffffff"
     borderopacity="1"
     inkscape:showpageshadow="0"
     inkscape:pageopacity="0"
     inkscape:pagecheckerboard="1"
     inkscape:deskcolor="#505050"
     inkscape:document-units="px"
     showgrid="true">
    <inkscape:grid
       id="grid1"
       units="px"
       originx="0"
       originy="0"
       spacingx="0.5"
       spacingy="0.5"
       empcolor="#0099e5"
       empopacity="0.30196078"
       color="#0099e5"
       opacity="0.14901961"
       empspacing="2"
       dotted="false"
       gridanglex="30"
       gridanglez="30"
       visible="true"
       snapvisiblegridlinesonly="true" />
  </sodipodi:namedview>
  <defs
     id="defs1" />
  <g
     inkscape:label="Layer 1"
     inkscape:groupmode="layer"
     id="layer1">
    <path
       id="rect7"
       style="fill:#ffffff;stroke:#6e738d;stroke-width:0"
       d="M 3,3 V 13 H 13 V 3 Z m 1,1 h 8 v 8 H 4 Z" />
    <path
       id="rect8"
       style="fill:#ffffff;stroke:#6e738d;stroke-width:0"
       d="M 3.0000007,10.914214 3.7071075,11.62132 6.5355346,8.7928933 8.656855,10.914214 9.3639618,10.207107 10.071069,9.5 12.192389,11.62132 12.899496,10.914214 10.778176,8.7928933 10.071069,8.0857865 8.656855,9.5 7.2426414,8.0857865 6.5355346,7.3786797 Z" />
    <path
       id="path11"
       style="fill:#ffffff;stroke:#6e738d;stroke-width:0"
       d="M 10,4.5 A 1.5,1.5 0 0 0 8.5,6 1.5,1.5 0 0 0 10,7.5 1.5,1.5 0 0 0 11.5,6 1.5,1.5 0 0 0 10,4.5 Z m 0,1 A 0.5,0.5 0 0 1 10.5,6 0.5,0.5 0 0 1 10,6.5 0.5,0.5 0 0 1 9.5,6 0.5,0.5 0 0 1 10,5.5 Z" />
  </g>
</svg>
